<svg width="113" height="34" viewBox="0 0 113 34" fill="none" xmlns="http://www.w3.org/2000/svg">
<g clip-path="url(#clip0_37_573)">
<path d="M108.636 0H4.36352C1.95361 0 0 1.93335 0 4.31825V29.6818C0 32.0667 1.95361 34 4.36352 34H108.636C111.046 34 113 32.0667 113 29.6818V4.31825C113 1.93335 111.046 0 108.636 0Z" fill="#010101"/>
<path d="M35.0585 9.75329H32.0241L31.3219 11.2423H30.9207L33.4284 5.9314H33.8297L36.3374 11.2423H35.8108L35.0585 9.75329ZM35.0585 9.40585L33.5789 6.35329L32.1745 9.40585H35.0585Z" fill="white"/>
<path d="M40.074 7.27148L38.2684 11.2423H37.8923L36.0867 7.27148H36.4879L38.0929 10.8204L39.6979 7.27148H40.074Z" fill="white"/>
<path d="M43.3091 7.61902C43.4522 7.76631 43.562 7.94208 43.6312 8.13464C43.7004 8.3272 43.7274 8.53214 43.7103 8.73581V11.2176H43.3341V10.5227C43.2182 10.7614 43.0236 10.9539 42.7824 11.0687C42.5104 11.2042 42.2092 11.2723 41.9047 11.2672C41.5409 11.3313 41.166 11.2606 40.8514 11.0687C40.7249 10.9723 40.6228 10.8482 40.5531 10.706C40.4835 10.5639 40.4483 10.4076 40.4502 10.2497C40.4453 10.0973 40.4768 9.94601 40.5422 9.80801C40.6075 9.67001 40.7049 9.54923 40.8264 9.45552C41.1544 9.22589 41.5548 9.12024 41.9549 9.15771H43.3341V8.71099C43.3455 8.55741 43.3246 8.40317 43.2728 8.25796C43.221 8.11275 43.1394 7.97971 43.0332 7.86719C42.9103 7.76065 42.7671 7.67943 42.6121 7.62829C42.4571 7.57715 42.2933 7.55713 42.1304 7.56938C41.8723 7.57066 41.6168 7.62122 41.3781 7.71829C41.1405 7.78753 40.9247 7.91566 40.7511 8.09055L40.5756 7.79274C40.7819 7.61725 41.0202 7.48247 41.2778 7.39566C41.5681 7.29617 41.8733 7.24583 42.1806 7.24676C42.5914 7.22061 42.9963 7.35418 43.3091 7.61902ZM42.8075 10.7212C43.0403 10.5588 43.2227 10.3354 43.3341 10.076V9.33143H41.9549C41.6572 9.31395 41.3608 9.38296 41.1022 9.52997C41.018 9.60427 40.9517 9.69639 40.9082 9.7995C40.8648 9.9026 40.8454 10.0141 40.8514 10.1256C40.8485 10.2391 40.8718 10.3518 40.9196 10.455C40.9674 10.5583 41.0385 10.6493 41.1273 10.7212C41.3714 10.8824 41.6618 10.9608 41.9549 10.9446C42.2549 10.9531 42.551 10.8756 42.8075 10.7212Z" fill="white"/>
<path d="M45.2652 6.22923C45.2332 6.20129 45.2075 6.16692 45.19 6.12841C45.1724 6.0899 45.1633 6.04813 45.1633 6.00588C45.1633 5.96362 45.1724 5.92186 45.19 5.88335C45.2075 5.84484 45.2332 5.81047 45.2652 5.78252C45.338 5.75592 45.4181 5.75592 45.4909 5.78252C45.5649 5.76361 45.6426 5.76361 45.7166 5.78252C45.7459 5.85415 45.7459 5.93424 45.7166 6.00588C45.7382 6.0788 45.7382 6.15632 45.7166 6.22923C45.6429 6.25061 45.5646 6.25061 45.4909 6.22923C45.4185 6.25821 45.3376 6.25821 45.2652 6.22923ZM45.2652 7.27157H45.6414V11.2424H45.2652V7.27157Z" fill="white"/>
<path d="M47.2964 5.60876H47.5974V11.2423H47.2212L47.2964 5.60876Z" fill="white"/>
<path d="M51.7854 7.61902C51.9285 7.76631 52.0384 7.94208 52.1075 8.13464C52.1767 8.3272 52.2037 8.53214 52.1866 8.73581V11.2176H51.8105V10.5227C51.6945 10.7614 51.4999 10.9539 51.2587 11.0687C50.9867 11.2042 50.6855 11.2723 50.381 11.2672C50.0172 11.3313 49.6423 11.2606 49.3278 11.0687C49.2012 10.9723 49.0991 10.8482 49.0295 10.706C48.9598 10.5639 48.9246 10.4076 48.9265 10.2497C48.9216 10.0973 48.9531 9.94601 49.0185 9.80801C49.0839 9.67001 49.1812 9.54923 49.3027 9.45552C49.6308 9.22589 50.0311 9.12024 50.4312 9.15771H51.8105V8.71099C51.8218 8.55741 51.8009 8.40317 51.7491 8.25796C51.6973 8.11275 51.6158 7.97971 51.5095 7.86719C51.3866 7.76065 51.2435 7.67943 51.0884 7.62829C50.9334 7.57715 50.7697 7.55713 50.6067 7.56938C50.3486 7.57066 50.0932 7.62122 49.8544 7.71829C49.6168 7.78753 49.401 7.91566 49.2275 8.09055L49.0519 7.79274C49.2582 7.61725 49.4966 7.48247 49.7541 7.39566C50.0444 7.29617 50.3496 7.24583 50.6569 7.24676C51.0677 7.22061 51.4726 7.35418 51.7854 7.61902ZM51.2838 10.7212C51.5166 10.5588 51.699 10.3354 51.8105 10.076V9.33143H50.4312C50.1335 9.31395 49.8371 9.38296 49.5785 9.52997C49.4943 9.60427 49.428 9.69639 49.3846 9.7995C49.3412 9.9026 49.3217 10.0141 49.3278 10.1256C49.3248 10.2391 49.3481 10.3518 49.3959 10.455C49.4437 10.5583 49.5148 10.6493 49.6036 10.7212C49.8477 10.8824 50.1382 10.9608 50.4312 10.9446C50.7312 10.9531 51.0274 10.8756 51.2838 10.7212Z" fill="white"/>
<path d="M56.801 7.4949C57.0947 7.66977 57.3369 7.91796 57.5032 8.2146C57.6794 8.53364 57.7659 8.89356 57.754 9.25694C57.7659 9.62032 57.6794 9.98024 57.5032 10.2993C57.3369 10.5959 57.0947 10.8441 56.801 11.019C56.4869 11.1913 56.1318 11.277 55.7728 11.2672C55.4377 11.2762 55.1071 11.1901 54.8199 11.019C54.5279 10.8498 54.2925 10.5995 54.1428 10.2993V11.2423H53.7666V5.60876H54.1428V8.09052C54.3008 7.80255 54.5348 7.56239 54.8199 7.39563C55.1071 7.22456 55.4377 7.13844 55.7728 7.14745C56.1413 7.16747 56.4971 7.2877 56.801 7.4949ZM56.5753 10.7212C56.8229 10.5753 57.0298 10.3706 57.1772 10.1256C57.3084 9.85442 57.3766 9.55759 57.3766 9.25694C57.3766 8.95629 57.3084 8.65946 57.1772 8.38833C57.0298 8.14329 56.8229 7.93856 56.5753 7.79271C56.3213 7.6573 56.0362 7.58892 55.7477 7.59417C55.46 7.59505 55.1764 7.66307 54.9202 7.79271C54.6875 7.94086 54.4974 8.14604 54.3685 8.38833C54.2214 8.65471 54.1443 8.95339 54.1443 9.25694C54.1443 9.56049 54.2214 9.85917 54.3685 10.1256C54.4974 10.3678 54.6875 10.573 54.9202 10.7212C55.1764 10.8508 55.46 10.9188 55.7477 10.9197C56.0362 10.925 56.3213 10.8566 56.5753 10.7212Z" fill="white"/>
<path d="M58.9575 5.60876H59.3337V11.2423H58.9575V5.60876Z" fill="white"/>
<path d="M64.3241 9.35623H60.8885C60.8948 9.64679 60.9816 9.93006 61.1393 10.1752C61.2757 10.4163 61.4866 10.6076 61.7411 10.7212C62.0008 10.8656 62.2963 10.9344 62.5938 10.9197C62.8413 10.9168 63.0868 10.8749 63.321 10.7956C63.5309 10.6918 63.7183 10.5485 63.8727 10.3737L64.0984 10.6219C63.9168 10.8333 63.6838 10.9956 63.4214 11.0935C63.1551 11.2175 62.8628 11.277 62.5687 11.2672C62.2015 11.2791 61.8378 11.1934 61.5154 11.019C61.2094 10.8517 60.9573 10.6022 60.7882 10.2993C60.6033 9.98269 60.508 9.62262 60.5123 9.25696C60.4995 8.90887 60.5783 8.56345 60.7409 8.25456C60.9036 7.94566 61.1446 7.6839 61.4402 7.49492C61.7456 7.32349 62.0924 7.23769 62.4433 7.24674C62.7859 7.24095 63.1238 7.32669 63.4214 7.49492C63.7018 7.67795 63.934 7.92472 64.0984 8.21463C64.2606 8.52999 64.3464 8.87832 64.3492 9.23214L64.3241 9.35623ZM61.6659 7.76791C61.4438 7.88842 61.2611 8.06924 61.1393 8.28908C60.989 8.51934 60.9025 8.78465 60.8885 9.05842H63.9731C63.9551 8.7888 63.8781 8.52627 63.7474 8.28908C63.6092 8.07337 63.4198 7.89444 63.1957 7.76791C62.9664 7.63862 62.7072 7.57023 62.4433 7.56937C62.1711 7.56705 61.903 7.63552 61.6659 7.76791Z" fill="white"/>
<path d="M68.0356 11.0686C67.7419 10.8937 67.4998 10.6455 67.3335 10.3489C67.155 10.0297 67.0602 9.67136 67.0576 9.30656C67.0568 8.94134 67.1519 8.58218 67.3335 8.26423C67.4998 7.96758 67.7419 7.71939 68.0356 7.54452C68.2661 7.41049 68.521 7.32278 68.7857 7.28642C69.0504 7.25006 69.3198 7.26576 69.5784 7.33262C69.837 7.39948 70.0797 7.51618 70.2926 7.67605C70.5056 7.83591 70.6845 8.03579 70.8193 8.26423C70.9786 8.58946 71.0641 8.94519 71.0701 9.30656C71.0641 9.66793 70.9786 10.0237 70.8193 10.3489C70.5339 10.7958 70.0877 11.1187 69.571 11.2523C69.0542 11.3859 68.5054 11.3202 68.0356 11.0686ZM69.8914 10.7708C70.1319 10.6242 70.3304 10.4192 70.4682 10.1752C70.6137 9.90909 70.683 9.60877 70.6688 9.30656C70.683 9.00435 70.6137 8.70403 70.4682 8.43795C70.3304 8.19396 70.1319 7.98892 69.8914 7.84233C69.6355 7.71174 69.3518 7.6436 69.0638 7.6436C68.7759 7.6436 68.4922 7.71174 68.2363 7.84233C68.002 7.99632 67.805 8.19972 67.6595 8.43795C67.5282 8.70909 67.4601 9.00591 67.4601 9.30656C67.4601 9.60722 67.5282 9.90404 67.6595 10.1752C67.805 10.4134 68.002 10.6168 68.2363 10.7708C68.4922 10.9014 68.7759 10.9695 69.0638 10.9695C69.3518 10.9695 69.6355 10.9014 69.8914 10.7708Z" fill="white"/>
<path d="M75.4085 7.66857C75.7082 8.02144 75.8606 8.47406 75.8348 8.93426V11.2423H75.4587V8.95908C75.5052 8.59723 75.4061 8.23177 75.1828 7.94156C75.0602 7.81701 74.911 7.72118 74.7461 7.66106C74.5812 7.60094 74.4048 7.57807 74.2299 7.59412C74.0259 7.57905 73.821 7.60909 73.6301 7.68206C73.4393 7.75503 73.2672 7.86911 73.1265 8.01602C72.9871 8.16589 72.8797 8.34204 72.8108 8.53393C72.7419 8.72583 72.7127 8.92952 72.7252 9.1328V11.2423H72.324V7.27149H72.6751V8.1401C72.8145 7.86165 73.0322 7.62897 73.302 7.47003C73.5946 7.31471 73.9231 7.23771 74.255 7.24667C74.6787 7.24277 75.0892 7.39289 75.4085 7.66857Z" fill="white"/>
<path d="M81.3771 11.0686L81.026 11.2672C80.8682 11.2931 80.7072 11.2931 80.5495 11.2672C80.2664 11.3015 79.9805 11.2307 79.747 11.0686C79.5607 10.8458 79.4626 10.5636 79.4711 10.2745V7.5942H78.7439V7.27157H79.4711V6.40295H79.8473V7.27157H81.1263V7.5942H79.8473V10.0759C79.8392 10.292 79.9105 10.5036 80.0479 10.6716C80.1209 10.7408 80.2077 10.7942 80.3026 10.8284C80.3976 10.8626 80.4988 10.8768 80.5996 10.8701C80.8294 10.875 81.0528 10.7955 81.2266 10.6467L81.3771 11.0686Z" fill="white"/>
<path d="M85.59 7.66862C85.7431 7.84062 85.8596 8.04128 85.9329 8.25869C86.0061 8.4761 86.0345 8.70584 86.0163 8.93431V11.2423H85.6402V8.95913C85.6429 8.76973 85.6065 8.58177 85.5332 8.40679C85.4599 8.23181 85.3512 8.07351 85.2139 7.94161C85.0845 7.81919 84.9306 7.72501 84.7621 7.66516C84.5936 7.60531 84.4143 7.58112 84.2358 7.59417C84.0321 7.58248 83.8283 7.61409 83.638 7.68686C83.4476 7.75963 83.2753 7.87188 83.1324 8.01606C82.9931 8.16593 82.8857 8.34209 82.8168 8.53398C82.7478 8.72588 82.7187 8.92956 82.7312 9.13285V11.2423H82.4553V5.60876H82.8315V8.09052C82.9635 7.82784 83.1735 7.61136 83.4334 7.47008C83.735 7.31482 84.0715 7.23796 84.4114 7.24672C84.845 7.22901 85.2682 7.38052 85.59 7.66862Z" fill="white"/>
<path d="M91.0068 9.35618H87.5461C87.5643 9.64474 87.6501 9.92515 87.7969 10.1752C87.955 10.4117 88.1717 10.6043 88.4263 10.7347C88.6808 10.865 88.9649 10.9287 89.2514 10.9197C89.4989 10.9168 89.7444 10.8749 89.9786 10.7956C90.1924 10.6981 90.3811 10.5539 90.5303 10.3737L90.756 10.6219C90.6122 10.804 90.4332 10.9558 90.2294 11.0686C89.9615 11.1876 89.6704 11.2469 89.3768 11.2423C89.0015 11.255 88.6295 11.1694 88.2984 10.9941C87.9976 10.8199 87.7472 10.5721 87.5712 10.2744C87.3862 9.95782 87.291 9.59776 87.2953 9.2321C87.3012 8.87072 87.3868 8.51499 87.5461 8.18976C87.7124 7.89311 87.9545 7.64492 88.2483 7.47005C88.5432 7.29567 88.8829 7.20948 89.2263 7.22188C89.5689 7.21608 89.9068 7.30182 90.2043 7.47005C90.4848 7.65309 90.7169 7.89985 90.8814 8.18976C91.0555 8.5006 91.1421 8.852 91.1322 9.20728L91.0068 9.35618ZM88.3235 7.76786C88.1013 7.88837 87.9186 8.06919 87.7969 8.28903C87.6554 8.52173 87.5776 8.78688 87.5712 9.05837H90.6306C90.6127 8.78875 90.5357 8.52622 90.4049 8.28903C90.2668 8.07332 90.0774 7.89439 89.8532 7.76786C89.6239 7.63857 89.3648 7.57018 89.1009 7.56932C88.8291 7.57032 88.5618 7.63857 88.3235 7.76786Z" fill="white"/>
<path d="M37.0146 20.5489H38.5945V24.0978C38.1098 24.4581 37.5672 24.735 36.9895 24.9168C36.3739 25.1143 35.7307 25.2148 35.0836 25.2146C34.2095 25.2357 33.345 25.0304 32.5758 24.619C31.8537 24.2579 31.2527 23.6976 30.8455 23.0058C30.3965 22.2567 30.1786 21.3941 30.2185 20.5241C30.1992 19.7033 30.4166 18.894 30.8455 18.1912C31.2627 17.5412 31.8527 17.0175 32.5507 16.6773C33.3151 16.2486 34.1799 16.0261 35.0585 16.0321C35.7618 16.0241 36.46 16.1505 37.1149 16.4044C37.7078 16.6396 38.2393 17.0044 38.6697 17.4715L37.5663 18.5138C37.2416 18.1824 36.8513 17.921 36.4198 17.7459C35.9882 17.5708 35.5248 17.4858 35.0585 17.4963C34.4746 17.4951 33.8987 17.6312 33.3783 17.8934C32.9012 18.1587 32.5033 18.544 32.2247 19.0102C31.9411 19.5012 31.794 20.0578 31.7984 20.6233C31.7937 21.1811 31.9409 21.7298 32.2247 22.2117C32.4962 22.6833 32.8959 23.0702 33.3783 23.3284C33.9159 23.6217 34.5198 23.7755 35.1337 23.7755C35.7476 23.7755 36.3516 23.6217 36.8892 23.3284L37.0146 20.5489Z" fill="white"/>
<path d="M41.8294 24.743C41.2936 24.4568 40.8503 24.0266 40.5505 23.5021C40.2235 22.9543 40.0584 22.3266 40.074 21.6905C40.0657 21.063 40.2304 20.4453 40.5505 19.9036C40.8519 19.3866 41.2954 18.9649 41.8294 18.6875C42.4091 18.3862 43.0556 18.2326 43.7103 18.2408C44.3654 18.2294 45.0126 18.3832 45.5911 18.6875C46.1328 18.9633 46.5848 19.3848 46.8951 19.9036C47.2042 20.4497 47.3682 21.0645 47.3716 21.6905C47.3747 22.3251 47.2105 22.9495 46.8951 23.5021C46.5853 24.0276 46.1338 24.4572 45.5911 24.743C45.0103 25.0388 44.3632 25.1839 43.7103 25.1649C43.0576 25.1818 42.411 25.0368 41.8294 24.743ZM45.0895 23.2291C45.2896 23.0273 45.4444 22.7858 45.5438 22.5207C45.6432 22.2556 45.685 21.9727 45.6663 21.6905C45.683 21.4122 45.6402 21.1336 45.5408 20.8727C45.4415 20.6119 45.2877 20.3747 45.0895 20.1766C44.903 19.9818 44.677 19.8281 44.4264 19.7254C44.1758 19.6228 43.9062 19.5736 43.635 19.581C43.3635 19.5704 43.0929 19.6181 42.8418 19.721C42.5907 19.8238 42.3651 19.9792 42.1805 20.1766C41.81 20.6005 41.606 21.1423 41.606 21.7029C41.606 22.2634 41.81 22.8052 42.1805 23.2291C42.3651 23.4265 42.5907 23.582 42.8418 23.6848C43.0929 23.7876 43.3635 23.8354 43.635 23.8248C43.9062 23.8321 44.1758 23.7829 44.4264 23.6803C44.677 23.5777 44.903 23.4239 45.0895 23.2291Z" fill="white"/>
<path d="M50.1053 24.743C49.5678 24.4502 49.118 24.0221 48.8012 23.5021C48.4859 22.9495 48.3216 22.3251 48.3248 21.6905C48.3282 21.0645 48.4921 20.4497 48.8012 19.9036C49.1186 19.3905 49.5688 18.9706 50.1053 18.6875C50.6838 18.3832 51.331 18.2294 51.9861 18.2408C52.6405 18.2357 53.2862 18.3891 53.8669 18.6875C54.401 18.9649 54.8445 19.3866 55.1459 19.9036C55.466 20.4453 55.6307 21.063 55.6224 21.6905C55.6257 22.3206 55.4521 22.9392 55.1208 23.4773C54.821 24.0018 54.3777 24.4319 53.8418 24.7182C53.2592 25.009 52.6134 25.1539 51.961 25.1401C51.3187 25.1626 50.6808 25.0261 50.1053 24.743ZM53.4406 23.2291C53.8112 22.8052 54.0151 22.2634 54.0151 21.7029C54.0151 21.1423 53.8112 20.6005 53.4406 20.1766C53.2531 19.983 53.0269 19.8301 52.7766 19.7276C52.5262 19.6251 52.257 19.5751 51.9861 19.581C51.7146 19.5704 51.4439 19.6181 51.1928 19.721C50.9418 19.8238 50.7162 19.9792 50.5316 20.1766C50.3334 20.3747 50.1797 20.6119 50.0803 20.8727C49.9809 21.1336 49.9382 21.4122 49.9548 21.6905C49.9362 21.9727 49.9779 22.2556 50.0773 22.5207C50.1767 22.7858 50.3315 23.0273 50.5316 23.2291C50.7162 23.4265 50.9418 23.582 51.1928 23.6848C51.4439 23.7876 51.7146 23.8354 51.9861 23.8248C52.257 23.8306 52.5262 23.7807 52.7766 23.6781C53.0269 23.5756 53.2531 23.4227 53.4406 23.2291Z" fill="white"/>
<path d="M63.9481 18.3153V24.0482C64.016 24.5409 63.967 25.0425 63.8049 25.5133C63.6429 25.984 63.3722 26.4109 63.0145 26.7601C62.6567 27.1093 62.2217 27.3713 61.7439 27.5252C61.266 27.6791 60.7586 27.7207 60.2616 27.6467C59.6268 27.6408 58.9951 27.5575 58.3808 27.3986C57.8569 27.2453 57.3645 27.0016 56.9263 26.6788L57.6536 25.4876C57.9904 25.746 58.3732 25.9396 58.7821 26.0584C59.235 26.2071 59.7092 26.2825 60.1864 26.2818C60.4779 26.3116 60.7724 26.283 61.0525 26.1977C61.3325 26.1125 61.5924 25.9722 61.8165 25.7854C62.0051 25.5777 62.149 25.3341 62.2395 25.0696C62.3301 24.8051 62.3653 24.5251 62.3431 24.2467V23.8745C62.069 24.1755 61.7246 24.4056 61.34 24.5445C60.9373 24.7195 60.5006 24.8043 60.061 24.7927C59.4497 24.7973 58.8467 24.6524 58.3056 24.3708C57.7866 24.1043 57.3526 23.7005 57.0517 23.2044C56.7441 22.6859 56.5879 22.0931 56.6003 21.492C56.5886 20.8988 56.7449 20.3142 57.0517 19.8044C57.3526 19.3083 57.7866 18.9045 58.3056 18.638C58.8486 18.364 59.4517 18.2276 60.061 18.2409C60.5249 18.2295 60.9862 18.314 61.4152 18.4891C61.8109 18.6317 62.1583 18.881 62.4183 19.2088V18.3153H63.9481ZM61.7914 22.9066C61.9843 22.7255 62.1357 22.5054 62.2352 22.2613C62.3347 22.0173 62.3801 21.7549 62.3682 21.492C62.3795 21.2365 62.3336 20.9816 62.2339 20.7457C62.1342 20.5097 61.9831 20.2985 61.7914 20.127C61.5949 19.9417 61.3625 19.7978 61.1081 19.7039C60.8538 19.6101 60.5829 19.5683 60.3118 19.581C60.0367 19.5663 59.7614 19.6071 59.5028 19.701C59.2441 19.7948 59.0074 19.9398 58.8071 20.127C58.6122 20.2973 58.4573 20.5077 58.3533 20.7435C58.2493 20.9793 58.1988 21.2348 58.2053 21.492C58.1982 21.7566 58.2482 22.0196 58.352 22.2635C58.4558 22.5075 58.6109 22.7267 58.8071 22.9066C59.2203 23.2687 59.7606 23.4558 60.3118 23.4277C60.8544 23.4493 61.3845 23.2626 61.7914 22.9066Z" fill="white"/>
<path d="M66.0547 15.6847H67.6597V25.0905H66.0547V15.6847Z" fill="white"/>
<path d="M76.1608 22.2116H70.7942C70.8834 22.6825 71.1417 23.1056 71.5215 23.4029C71.9578 23.6936 72.4754 23.8412 73.001 23.8248C73.347 23.833 73.6911 23.7736 74.0138 23.6501C74.3366 23.5266 74.6315 23.3414 74.8819 23.105L75.7345 24.0729C75.4202 24.4427 75.014 24.7249 74.5559 24.8919C74.0537 25.0892 73.516 25.1821 72.976 25.1649C72.2907 25.1869 71.6104 25.042 70.9948 24.743C70.4397 24.4655 69.9779 24.0344 69.6657 23.5021C69.3387 22.9543 69.1736 22.3266 69.1892 21.6904C69.1802 21.074 69.336 20.4661 69.6406 19.9284C69.9336 19.3987 70.3786 18.9669 70.9196 18.6875C71.4564 18.3923 72.0609 18.2385 72.675 18.2408C73.2982 18.2295 73.9131 18.3838 74.4556 18.6875C74.9829 18.9653 75.4182 19.3875 75.7094 19.9036C76.0003 20.4724 76.1466 21.1027 76.1358 21.7401C76.1543 21.8966 76.1626 22.0541 76.1608 22.2116ZM71.4212 19.9532C71.0696 20.2592 70.8461 20.684 70.7942 21.1445H74.6562C74.6043 20.684 74.3807 20.2592 74.0292 19.9532C73.6521 19.6386 73.1675 19.4788 72.675 19.5065C72.2171 19.5056 71.7734 19.6637 71.4212 19.9532Z" fill="white"/>
<path d="M87.145 16.6029C87.6903 16.824 88.1542 17.2051 88.4741 17.6949C88.7873 18.2019 88.9442 18.7885 88.9255 19.3825C88.9285 19.9511 88.7722 20.5095 88.4741 20.9956C88.1473 21.4794 87.6855 21.8587 87.145 22.0876C86.5065 22.3689 85.8123 22.5046 85.1137 22.4847H83.0824V24.9664H81.4272V16.2058H85.214C85.8789 16.2005 86.5372 16.3359 87.145 16.6029ZM86.6936 20.673C86.8806 20.5152 87.0279 20.3164 87.1237 20.0923C87.2195 19.8683 87.2611 19.6252 87.2453 19.3825C87.2631 19.1359 87.2225 18.8885 87.1267 18.6602C87.0309 18.4318 86.8826 18.2288 86.6936 18.0672C86.2154 17.7215 85.6291 17.5545 85.0384 17.5956H83.0824V21.1445H85.0384C85.6291 21.1857 86.2154 21.0186 86.6936 20.673Z" fill="white"/>
<path d="M90.5554 15.6847H92.1604V25.0905H90.5554V15.6847Z" fill="white"/>
<path d="M99.1821 18.9606C99.4694 19.2389 99.6905 19.5771 99.8293 19.9506C99.9681 20.324 100.021 20.7234 99.9846 21.1197V25.0905H98.4799V24.2715C98.2776 24.5714 97.9894 24.8047 97.6523 24.9416C97.228 25.1003 96.7767 25.1762 96.3232 25.1649C95.8672 25.1789 95.4136 25.0942 94.9941 24.9168C94.6289 24.7687 94.3152 24.5187 94.0913 24.1971C93.894 23.8845 93.7897 23.5232 93.7904 23.1547C93.7796 22.8752 93.8352 22.5972 93.9528 22.3428C94.0704 22.0885 94.2467 21.8651 94.4675 21.6905C95.1028 21.2713 95.8635 21.0787 96.6242 21.1445H98.3796V20.9956C98.3948 20.7937 98.3645 20.591 98.2907 20.4021C98.217 20.2132 98.1017 20.043 97.9533 19.9036C97.596 19.6308 97.1494 19.4983 96.6994 19.5314C96.3079 19.5266 95.9182 19.5852 95.5458 19.7051C95.2115 19.82 94.8982 19.9876 94.618 20.2014L93.991 19.0598C94.367 18.7952 94.7937 18.6094 95.2449 18.5138C95.7662 18.3633 96.3068 18.2881 96.8499 18.2905C97.6847 18.2159 98.5174 18.4551 99.1821 18.9606ZM97.7527 23.7503C98.0578 23.5814 98.2897 23.3077 98.4047 22.981V22.1868H96.7495C95.8217 22.1868 95.3452 22.4846 95.3452 23.0803C95.3432 23.2155 95.374 23.3491 95.4351 23.4701C95.4962 23.591 95.5858 23.6956 95.6963 23.7752C95.9861 23.9615 96.3297 24.0487 96.6743 24.0233C97.0523 24.0322 97.4254 23.9377 97.7527 23.7503Z" fill="white"/>
<path d="M108.31 18.3153L105.126 25.6365C104.909 26.2409 104.527 26.7737 104.022 27.1752C103.571 27.4989 103.024 27.6648 102.467 27.6467C102.126 27.6373 101.788 27.5788 101.464 27.473C101.168 27.3649 100.889 27.2144 100.637 27.0263L101.289 25.8598C101.45 26.0014 101.637 26.1109 101.84 26.1825C102.036 26.2737 102.251 26.3163 102.467 26.3065C102.717 26.3212 102.965 26.2511 103.17 26.108C103.385 25.9049 103.556 25.6599 103.671 25.3883V25.1153L100.812 18.3153H102.467L104.624 23.2788L106.781 18.3153H108.31Z" fill="white"/>
<path d="M27.1843 16.5781L22.8709 14.0963L19.335 17.4963L22.5198 20.5985L27.1341 17.9678C27.2595 17.8992 27.3641 17.7985 27.4369 17.6763C27.5097 17.5541 27.5481 17.4148 27.5481 17.273C27.5481 17.1311 27.5097 16.9918 27.4369 16.8696C27.3641 16.7474 27.2595 16.6467 27.1341 16.5781H27.1843Z" fill="white"/>
<path d="M22.1436 13.6992L17.429 10.9941L7.04688 5.73279L18.7581 16.9503L22.1436 13.6992Z" fill="white"/>
<path d="M7.19727 29.1109L17.429 23.527L21.8426 21.0204L18.7581 18.0671L7.19727 29.1109Z" fill="white"/>
<path d="M6.34466 6.17957L6.31958 28.838L18.1813 17.4964L6.34466 6.17957Z" fill="white"/>
</g>
<defs>
<clipPath id="clip0_37_573">
<rect width="113" height="34" fill="white"/>
</clipPath>
</defs>
</svg>
