<svg width="113" height="34" viewBox="0 0 113 34" fill="none" xmlns="http://www.w3.org/2000/svg">
<g clip-path="url(#clip0_37_572)">
<path d="M108.636 0H4.36352C1.95361 0 0 1.93335 0 4.31825V29.6818C0 32.0667 1.95361 34 4.36352 34H108.636C111.046 34 113 32.0667 113 29.6818V4.31825C113 1.93335 111.046 0 108.636 0Z" fill="#010101"/>
<path d="M7.02169 13.8978C6.28453 15.6636 6.02182 17.5883 6.25913 19.4844C6.49644 21.3806 7.22567 23.1837 8.37589 24.7182C9.37899 26.1576 10.4072 27.4729 11.8115 27.4729C12.3682 27.4312 12.9123 27.2882 13.4165 27.051C14.0012 26.7632 14.6443 26.6104 15.2973 26.6043C15.9233 26.6113 16.5399 26.7554 17.1029 27.0262C17.6413 27.2881 18.2334 27.424 18.8333 27.4233C20.4132 27.4233 21.341 26.0087 22.2438 24.7678C22.8854 23.8364 23.384 22.8161 23.7234 21.7401C23.7439 21.711 23.7549 21.6763 23.7549 21.6408C23.7549 21.6053 23.7439 21.5707 23.7234 21.5416C22.8991 21.2008 22.1962 20.6244 21.7048 19.8861C21.2134 19.1477 20.9557 18.2811 20.9649 17.397C20.9783 16.621 21.1871 15.8605 21.5725 15.1845C21.9578 14.5084 22.5075 13.9382 23.1717 13.5255C22.7234 12.877 22.1258 12.3431 21.4283 11.9677C20.7307 11.5924 19.953 11.3863 19.1593 11.3664H18.9837C18.1165 11.4195 17.2665 11.6298 16.476 11.9868C16.0889 12.1746 15.6741 12.3003 15.2472 12.3591C14.7849 12.2223 14.3516 12.0037 13.9682 11.7138C13.2728 11.3991 12.5246 11.214 11.7614 11.1678C10.7968 11.1617 9.84828 11.4118 9.01462 11.8919C8.18097 12.3721 7.49274 13.0648 7.02169 13.8978Z" fill="white"/>
<path d="M19.2095 6.00586C17.9407 6.12686 16.7661 6.72139 15.9243 7.66863C15.5101 8.12897 15.1944 8.66753 14.9961 9.25186C14.7978 9.83619 14.7212 10.4542 14.7707 11.0686C14.7707 11.1081 14.7866 11.146 14.8148 11.1739C14.843 11.2018 14.8813 11.2175 14.9212 11.2175H15.1469C15.7443 11.1915 16.3291 11.0383 16.8614 10.7685C17.3937 10.4987 17.861 10.1186 18.2314 9.65403C19.0691 8.68485 19.484 7.42635 19.385 6.15476C19.385 6.15476 19.2847 6.00586 19.2095 6.00586Z" fill="white"/>
<path d="M32.0994 5.9066H34.231C34.7455 5.90048 35.2536 6.0198 35.7106 6.25404C36.1277 6.46909 36.4753 6.79588 36.7137 7.19711C36.9614 7.60899 37.0834 8.08308 37.0647 8.56207C37.0799 9.04855 36.9583 9.52965 36.7137 9.95185C36.4753 10.3531 36.1277 10.6799 35.7106 10.8949C35.2536 11.1292 34.7455 11.2485 34.231 11.2424H32.0994V5.9066ZM34.1808 10.8701C34.6377 10.8958 35.0939 10.8106 35.5099 10.6219C35.87 10.4298 36.1727 10.1474 36.3876 9.80295C36.5913 9.42971 36.6949 9.01103 36.6886 8.58689C36.6907 8.17113 36.5872 7.76151 36.3876 7.39565C36.1727 7.0512 35.87 6.76876 35.5099 6.57667C35.0983 6.37093 34.6418 6.26865 34.1808 6.27886H32.4755V10.8701H34.1808Z" fill="white"/>
<path d="M38.8453 10.9942C38.5458 10.8264 38.302 10.5765 38.1431 10.2745C37.9614 9.96559 37.8661 9.61436 37.8672 9.25695C37.8488 8.86618 37.9446 8.47845 38.1431 8.14016C38.3094 7.84351 38.5515 7.59532 38.8453 7.42045C39.1629 7.25729 39.5155 7.17212 39.8734 7.17212C40.2313 7.17212 40.584 7.25729 40.9016 7.42045C41.1825 7.59552 41.4083 7.8448 41.5536 8.14016C41.7386 8.45677 41.8339 8.81683 41.8295 9.1825C41.8306 9.53991 41.7354 9.89114 41.5536 10.2C41.4026 10.5075 41.1567 10.7595 40.8515 10.9197C40.5389 11.0983 40.1843 11.1924 39.8233 11.1924C39.4623 11.1924 39.1077 11.0983 38.7951 10.9197L38.8453 10.9942ZM40.701 10.6219C40.9452 10.4911 41.1456 10.2928 41.2778 10.0511C41.4245 9.80825 41.5185 9.53777 41.5536 9.25695C41.5559 8.95591 41.4872 8.65849 41.353 8.38833C41.2153 8.14435 41.0167 7.9393 40.7762 7.79271C40.5255 7.64648 40.2397 7.56936 39.9487 7.56936C39.6576 7.56936 39.3719 7.64648 39.1211 7.79271C38.8806 7.9393 38.6821 8.14435 38.5443 8.38833C38.4101 8.65849 38.3414 8.95591 38.3437 9.25695C38.3449 9.5576 38.4134 9.85424 38.5443 10.1256C38.6667 10.3301 38.8392 10.5008 39.0459 10.6219C39.2966 10.7681 39.5824 10.8453 39.8734 10.8453C40.1645 10.8453 40.4502 10.7681 40.701 10.6219Z" fill="white"/>
<path d="M48.6758 7.27148L47.146 11.2423H46.795L45.4408 7.79265L44.0615 11.2423H43.7104L42.1807 7.27148H42.5568L43.8859 10.7956L45.2652 7.27148H45.5912L46.9454 10.7956L48.2996 7.27148H48.6758Z" fill="white"/>
<path d="M52.7134 7.66857C53.0137 8.01125 53.1667 8.4566 53.1397 8.90945V11.2423H52.7635V8.93427C52.7837 8.56295 52.6579 8.19831 52.4124 7.91675C52.1881 7.70565 51.8941 7.5822 51.5849 7.5693C51.3815 7.56074 51.1786 7.59378 50.9887 7.66638C50.7988 7.73897 50.6261 7.84955 50.4814 7.9912C50.3433 8.14186 50.2367 8.31813 50.1678 8.50983C50.0989 8.70152 50.0691 8.90483 50.0802 9.10799V11.2423H49.679V7.27149H50.0551V8.14011C50.1961 7.86915 50.414 7.64487 50.6821 7.49485C50.9574 7.33907 51.2677 7.25377 51.5849 7.24668C52.0021 7.23673 52.4069 7.38807 52.7134 7.66857Z" fill="white"/>
<path d="M54.7195 5.65845H55.0956V11.2424H54.7195V5.65845Z" fill="white"/>
<path d="M57.2774 10.9942C56.9845 10.8261 56.7488 10.5756 56.6003 10.2745C56.4261 9.96365 56.3395 9.61225 56.3495 9.25698C56.3234 8.86864 56.4105 8.48107 56.6003 8.14019C56.7693 7.83727 57.0214 7.58779 57.3275 7.42048C57.6329 7.24906 57.9797 7.16326 58.3306 7.17231C58.6899 7.15996 59.0456 7.24583 59.3588 7.42048C59.6596 7.59467 59.91 7.84252 60.0861 8.14019C60.2622 8.45923 60.3488 8.81915 60.3368 9.18253C60.3468 9.5378 60.2602 9.8892 60.0861 10.2C59.917 10.503 59.6649 10.7524 59.3588 10.9198C59.0482 11.1031 58.6923 11.1976 58.3306 11.1927C57.9676 11.2263 57.6025 11.1575 57.2774 10.9942ZM59.108 10.6219C59.3581 10.4991 59.5607 10.2986 59.6848 10.0511C59.8356 9.78614 59.9134 9.48662 59.9105 9.18253C59.9158 8.87814 59.8378 8.57801 59.6848 8.31392C59.5432 8.0922 59.344 7.91221 59.108 7.79275C58.8611 7.63766 58.5727 7.55982 58.2805 7.56939C57.9965 7.56328 57.7171 7.64104 57.478 7.79275C57.232 7.93248 57.0318 8.13922 56.9012 8.38837C56.7482 8.65246 56.6702 8.9526 56.6755 9.25698C56.6726 9.56108 56.7504 9.8606 56.9012 10.1256C57.0253 10.3731 57.2279 10.5735 57.478 10.6964C57.7171 10.8481 57.9965 10.9259 58.2805 10.9198C58.5808 10.9075 58.8699 10.8035 59.108 10.6219Z" fill="white"/>
<path d="M63.9731 7.61894C64.106 7.76704 64.2078 7.9399 64.2723 8.12741C64.3369 8.31491 64.3631 8.51328 64.3492 8.71091V11.1927H64.1235V10.6219C63.9911 10.8571 63.7901 11.0473 63.5467 11.1678C63.2758 11.3063 62.9738 11.3746 62.669 11.3664C62.2767 11.3623 61.9005 11.2116 61.6158 10.9445C61.4923 10.8469 61.3939 10.7219 61.3286 10.5796C61.2632 10.4373 61.2327 10.2817 61.2396 10.1255C61.2317 9.97524 61.2593 9.82521 61.3203 9.68736C61.3812 9.5495 61.4738 9.4276 61.5907 9.33135C61.9173 9.09688 62.3165 8.98275 62.7192 9.00872H64.0985V8.71091C64.1113 8.55721 64.0912 8.40254 64.0393 8.25711C63.9875 8.11167 63.9051 7.97875 63.7975 7.86711C63.6784 7.76248 63.5395 7.68227 63.3888 7.63115C63.2382 7.58003 63.0787 7.55901 62.9198 7.5693C62.6533 7.56799 62.3891 7.61859 62.1424 7.71821C61.9181 7.78825 61.7125 7.90696 61.5405 8.06565L61.3399 7.79266C61.5554 7.61692 61.802 7.48228 62.0672 7.39558C62.3484 7.29452 62.6457 7.24409 62.9449 7.24668C63.3207 7.24974 63.684 7.38125 63.9731 7.61894ZM63.4464 10.6219C63.686 10.456 63.8696 10.2225 63.9731 9.95179V9.20726H62.6189C62.3169 9.1793 62.0147 9.25847 61.7662 9.43062C61.6846 9.52485 61.6281 9.63779 61.6018 9.75915C61.5755 9.88051 61.5803 10.0064 61.6158 10.1255C61.6137 10.2414 61.64 10.3561 61.6924 10.4598C61.7448 10.5635 61.8218 10.6532 61.9167 10.7211C62.1497 10.8858 62.4336 10.9648 62.7192 10.9445C62.9869 10.9048 63.2384 10.7932 63.4464 10.6219Z" fill="white"/>
<path d="M69.5154 5.65845V11.2424H69.1392V10.2993C68.9748 10.5892 68.7426 10.836 68.4621 11.019C68.1624 11.1819 67.826 11.2673 67.4841 11.2672C67.1308 11.2687 66.7838 11.1743 66.481 10.9942C66.1834 10.8355 65.9393 10.5939 65.7788 10.2993C65.6003 9.98013 65.5055 9.62178 65.503 9.25699C65.4845 8.86622 65.5803 8.47849 65.7788 8.1402C65.9299 7.83272 66.1758 7.58069 66.481 7.42049C66.7864 7.24906 67.1332 7.16326 67.4841 7.17232C67.8272 7.16268 68.1661 7.24867 68.4621 7.42049C68.7591 7.58347 68.9961 7.83545 69.1392 8.1402V5.65845H69.5154ZM68.3367 10.622C68.581 10.4912 68.7814 10.2928 68.9135 10.0511C69.053 9.80859 69.1305 9.53595 69.1392 9.25699C69.1535 8.95478 69.0841 8.65446 68.9386 8.38837C68.8008 8.14439 68.6023 7.93934 68.3618 7.79275C68.1111 7.64652 67.8253 7.5694 67.5343 7.5694C67.2432 7.5694 66.9575 7.64652 66.7067 7.79275C66.4724 7.94674 66.2754 8.15015 66.1299 8.38837C65.9957 8.65853 65.927 8.95595 65.9293 9.25699C65.9305 9.55764 65.999 9.85428 66.1299 10.1256C66.2386 10.3081 66.3825 10.4676 66.5535 10.5951C66.7245 10.7226 66.9192 10.8154 67.1264 10.8685C67.3337 10.9215 67.5494 10.9335 67.7614 10.904C67.9734 10.8745 68.1774 10.804 68.3618 10.6964L68.3367 10.622Z" fill="white"/>
<path d="M73.628 10.9941C73.3286 10.8264 73.0847 10.5764 72.9258 10.2744C72.7441 9.96554 72.6489 9.61431 72.6499 9.2569C72.6315 8.86613 72.7273 8.47839 72.9258 8.14011C73.0921 7.84346 73.3342 7.59527 73.628 7.4204C73.9434 7.25139 74.2975 7.1659 74.6562 7.17222C75.0103 7.15857 75.3615 7.24166 75.6711 7.41238C75.9808 7.5831 76.2369 7.83487 76.4116 8.14011C76.5878 8.45915 76.6744 8.81907 76.6624 9.18244C76.6723 9.53772 76.5857 9.88912 76.4116 10.2C76.2425 10.5029 75.9904 10.7524 75.6843 10.9197C75.3722 11.0995 75.0173 11.1937 74.6562 11.1927C74.302 11.2132 73.9483 11.1449 73.628 10.9941ZM75.4837 10.6219C75.7279 10.4911 75.9283 10.2927 76.0605 10.0511C76.2037 9.78411 76.2729 9.48443 76.2611 9.18244C76.2753 8.88024 76.206 8.57992 76.0605 8.31383C75.9227 8.06984 75.7242 7.8648 75.4837 7.71821C75.233 7.57198 74.9472 7.49485 74.6562 7.49485C74.3651 7.49485 74.0794 7.57198 73.8286 7.71821C73.5943 7.8722 73.3973 8.0756 73.2518 8.31383C73.1176 8.58399 73.0489 8.88141 73.0512 9.18244C73.0524 9.48309 73.1209 9.77974 73.2518 10.0511C73.3605 10.2336 73.5044 10.3931 73.6754 10.5206C73.8464 10.648 74.0411 10.7409 74.2483 10.7939C74.4556 10.8469 74.6713 10.859 74.8833 10.8295C75.0953 10.8 75.2993 10.7294 75.4837 10.6219Z" fill="white"/>
<path d="M81.0009 7.66867C81.1544 7.83531 81.2715 8.03154 81.3449 8.24507C81.4183 8.45859 81.4463 8.68481 81.4272 8.90954V11.2424H81.051V8.93436C81.0666 8.74996 81.0435 8.56435 80.9831 8.38923C80.9227 8.21411 80.8263 8.05327 80.6999 7.91684C80.5735 7.7976 80.4237 7.70526 80.2598 7.6455C80.0959 7.58575 79.9214 7.55985 79.747 7.5694C79.5438 7.5623 79.3413 7.59603 79.1516 7.66854C78.962 7.74105 78.7891 7.85085 78.6436 7.9913C78.5054 8.14195 78.3988 8.31823 78.3299 8.50992C78.261 8.70162 78.2313 8.90493 78.2423 9.10808V11.2424H77.8411V7.27159H78.2172V8.1402C78.3582 7.86924 78.5761 7.64497 78.8442 7.49495C79.1458 7.33969 79.4823 7.26283 79.8222 7.27159C80.0356 7.25532 80.2501 7.28212 80.4527 7.35038C80.6553 7.41864 80.8418 7.52693 81.0009 7.66867Z" fill="white"/>
<path d="M86.9693 10.9694C86.8685 11.0663 86.7492 11.1422 86.6182 11.1927C86.4605 11.2187 86.2995 11.2187 86.1418 11.1927C85.995 11.2044 85.8474 11.184 85.7095 11.1329C85.5716 11.0818 85.4467 11.0013 85.3438 10.8971C85.2408 10.7928 85.1624 10.6675 85.1139 10.5298C85.0655 10.3922 85.0482 10.2457 85.0634 10.1008V7.61901H84.3362V7.27157H85.0634V6.40295H85.4396V7.27157H86.6935V7.5942H85.4396V10.0759C85.4278 10.2849 85.4999 10.4901 85.6402 10.6468C85.7089 10.7232 85.7943 10.783 85.8899 10.8217C85.9855 10.8605 86.0888 10.877 86.1919 10.8701C86.425 10.8682 86.6488 10.7796 86.8189 10.6219L86.9693 10.9694Z" fill="white"/>
<path d="M91.1823 7.66867C91.3391 7.8341 91.46 8.02952 91.5376 8.24292C91.6153 8.45632 91.648 8.68318 91.6337 8.90954V11.2424H91.2325V8.93436C91.2596 8.56637 91.1429 8.20213 90.9065 7.91684C90.7792 7.79879 90.6293 7.70722 90.4656 7.64754C90.3019 7.58786 90.1278 7.56129 89.9535 7.5694C89.7463 7.56035 89.5395 7.59308 89.3455 7.66561C89.1515 7.73814 88.9744 7.84894 88.825 7.99129C88.6868 8.14195 88.5802 8.31822 88.5114 8.50992C88.4425 8.70161 88.4127 8.90492 88.4238 9.10808V11.2424H88.0476V5.65845H88.4238V8.1402C88.5558 7.87752 88.7658 7.66104 89.0256 7.51976C89.3273 7.3645 89.6638 7.28764 90.0037 7.2964C90.2154 7.27532 90.4293 7.29749 90.632 7.36152C90.8348 7.42555 91.0221 7.53009 91.1823 7.66867Z" fill="white"/>
<path d="M96.7245 9.33133H93.1384C93.1527 9.62838 93.2386 9.91772 93.3891 10.1751C93.5389 10.4054 93.7462 10.5935 93.991 10.7211C94.2552 10.8537 94.5475 10.9217 94.8437 10.9196C95.0939 10.9204 95.3415 10.8697 95.5709 10.7707C95.7884 10.6914 95.9793 10.5539 96.1226 10.3737L96.3483 10.6218C96.171 10.827 95.9477 10.9885 95.6963 11.0934C95.4284 11.2123 95.1373 11.2716 94.8437 11.2671C94.4667 11.2677 94.0957 11.1738 93.7653 10.9941C93.4656 10.8295 93.2148 10.5899 93.0381 10.2992C92.8596 9.98002 92.7647 9.62167 92.7622 9.25687C92.762 8.89477 92.8479 8.53771 93.013 8.21454C93.1793 7.91789 93.4214 7.6697 93.7152 7.49483C94.0101 7.32045 94.3498 7.23426 94.6932 7.24666C95.0358 7.24087 95.3737 7.3266 95.6712 7.49483C95.9506 7.6686 96.183 7.9071 96.3483 8.18972C96.5191 8.51079 96.6053 8.86928 96.5991 9.23206L96.7245 9.33133ZM94.0662 7.76782C93.8373 7.88785 93.6463 8.06823 93.5145 8.28899C93.3872 8.51868 93.3103 8.77239 93.2888 9.03352H96.2229C96.2015 8.77239 96.1246 8.51868 95.9972 8.28899C95.8591 8.07329 95.6697 7.89435 95.4455 7.76782C95.2168 7.63713 94.9573 7.56833 94.6932 7.56833C94.4291 7.56833 94.1696 7.63713 93.9409 7.76782H94.0662Z" fill="white"/>
<path d="M37.767 23.0306H33.1778L32.275 25.1401H30.5195L34.6573 16.0569H36.3376L40.4754 25.1401H38.6949L37.767 23.0306ZM37.2153 21.7153L35.4849 17.7445L33.7546 21.7153H37.2153Z" fill="white"/>
<path d="M47.1962 18.5139C47.7196 18.8079 48.1529 19.2367 48.4501 19.7547C48.7617 20.3266 48.9249 20.9663 48.9249 21.616C48.9249 22.2658 48.7617 22.9054 48.4501 23.4774C48.1675 24.0062 47.7306 24.4386 47.1962 24.7182C46.6346 25.0196 46.0043 25.1734 45.3655 25.1649C44.9477 25.1878 44.53 25.1171 44.1436 24.9581C43.7572 24.7991 43.412 24.5559 43.1336 24.2467V27.5971H41.5537V18.0671H43.1085V19.0598C43.3848 18.743 43.727 18.4891 44.1116 18.3153C44.536 18.1543 44.9862 18.0703 45.4407 18.0671C46.0541 18.0712 46.657 18.2246 47.1962 18.5139ZM46.5692 23.1795C46.7675 22.9713 46.9209 22.7253 47.02 22.4565C47.1192 22.1877 47.1621 21.9017 47.146 21.616C47.1621 21.3303 47.1192 21.0444 47.02 20.7756C46.9209 20.5068 46.7675 20.2608 46.5692 20.0525C46.3779 19.8571 46.1475 19.7032 45.8928 19.6006C45.6381 19.4981 45.3646 19.4491 45.0897 19.4569C44.7147 19.4476 44.3436 19.533 44.0113 19.7051C43.5535 20.0533 43.2312 20.5471 43.0987 21.1033C42.9662 21.6594 43.0317 22.2438 43.2841 22.7577C43.451 23.075 43.7025 23.341 44.0113 23.527C44.3436 23.699 44.7147 23.7845 45.0897 23.7752C45.3646 23.7829 45.6381 23.734 45.8928 23.6315C46.1475 23.5289 46.3779 23.375 46.5692 23.1795Z" fill="white"/>
<path d="M56.1992 18.5138C56.7226 18.8079 57.1559 19.2367 57.453 19.7547C57.7502 20.3311 57.9052 20.9689 57.9052 21.616C57.9052 22.2631 57.7502 22.901 57.453 23.4773C57.1705 24.0062 56.7336 24.4386 56.1992 24.7182C55.6376 25.0195 55.0073 25.1733 54.3685 25.1649C53.9469 25.1879 53.5255 25.1174 53.135 24.9585C52.7445 24.7997 52.3948 24.5564 52.1115 24.2467V27.597H50.4814V18.0671H52.0363V19.0598C52.3072 18.7374 52.6508 18.4824 53.0394 18.3153C53.4631 18.1521 53.9138 18.068 54.3685 18.0671C55.0073 18.0587 55.6376 18.2125 56.1992 18.5138ZM55.6725 23.1795C56.035 22.7374 56.2328 22.1853 56.2328 21.616C56.2328 21.0467 56.035 20.4946 55.6725 20.0525C55.4765 19.8563 55.2417 19.7022 54.9828 19.5998C54.724 19.4973 54.4465 19.4487 54.1679 19.4569C53.8009 19.4474 53.4378 19.5329 53.1146 19.7051C52.7982 19.8895 52.5382 20.1554 52.3623 20.4744C52.1776 20.8272 52.0812 21.2187 52.0812 21.616C52.0812 22.0133 52.1776 22.4048 52.3623 22.7576C52.5315 23.0814 52.7931 23.349 53.1146 23.527C53.4378 23.6991 53.8009 23.7846 54.1679 23.7751C54.4465 23.7834 54.724 23.7347 54.9828 23.6322C55.2417 23.5298 55.4765 23.3757 55.6725 23.1795Z" fill="white"/>
<path d="M64.1236 24.9168C63.5463 24.7652 63.0079 24.4946 62.5437 24.1226L63.1456 22.8073C63.5564 23.1296 64.0241 23.3736 64.5248 23.527C65.0473 23.7139 65.5994 23.8063 66.1549 23.8C66.6858 23.8437 67.2179 23.7315 67.6846 23.4774C67.8401 23.3979 67.9698 23.2764 68.0585 23.1271C68.1472 22.9778 68.1915 22.8067 68.1862 22.6336C68.1951 22.5121 68.1747 22.3903 68.1268 22.2781C68.0788 22.1659 68.0046 22.0666 67.9103 21.9883C67.7077 21.8078 67.4682 21.6724 67.2081 21.5912L66.0295 21.2686C65.4506 21.1408 64.8809 20.975 64.3242 20.7723C63.8996 20.6067 63.5213 20.3429 63.2208 20.0029C62.8823 19.6106 62.7114 19.1032 62.7443 18.5883C62.7313 18.1031 62.8716 17.626 63.1456 17.2234C63.4581 16.7797 63.8935 16.435 64.3994 16.2307C65.0431 15.9684 65.7349 15.8417 66.4307 15.8584C66.9903 15.856 67.5474 15.9312 68.0859 16.0818C68.59 16.1838 69.0679 16.3865 69.4902 16.6774L68.8883 18.0672C68.4976 17.8293 68.0757 17.6456 67.6345 17.5212C67.2181 17.4058 66.7878 17.3474 66.3555 17.3475C65.8295 17.3037 65.303 17.4253 64.8508 17.6949C64.6968 17.7887 64.5697 17.9201 64.4818 18.0766C64.394 18.2331 64.3483 18.4093 64.3493 18.5883C64.3453 18.7081 64.3706 18.827 64.423 18.935C64.4754 19.043 64.5533 19.1369 64.6502 19.2088C64.8529 19.3893 65.0923 19.5247 65.3524 19.6058L66.531 19.9285C67.104 20.0478 67.666 20.2138 68.2113 20.4248C68.6484 20.5803 69.0372 20.8454 69.3397 21.1942C69.6587 21.5862 69.8195 22.0814 69.7911 22.5839C69.7948 23.0679 69.6553 23.5424 69.3899 23.9489C69.069 24.3787 68.6354 24.7134 68.136 24.9168C67.4846 25.1824 66.7839 25.3093 66.0797 25.2891C65.4128 25.2597 64.7539 25.1342 64.1236 24.9168Z" fill="white"/>
<path d="M75.534 24.6934C75.3295 24.8657 75.09 24.9926 74.8318 25.0656C74.5489 25.1035 74.2621 25.1035 73.9792 25.0656C73.3301 25.103 72.6917 24.8895 72.1987 24.47C71.972 24.2426 71.7967 23.9701 71.6843 23.6706C71.5719 23.3712 71.525 23.0515 71.5466 22.7328V19.5065H70.3931V18.216H71.647V16.6277H73.3021V18.216H75.1578V19.5065H73.3021V22.8072C73.2805 23.0863 73.3705 23.3626 73.5529 23.5766C73.6453 23.6651 73.7557 23.733 73.8768 23.7758C73.9979 23.8186 74.1269 23.8353 74.255 23.8248C74.5872 23.8455 74.9161 23.7487 75.1829 23.5518L75.534 24.6934Z" fill="white"/>
<path d="M77.8912 24.7182C77.3343 24.4317 76.8728 23.9922 76.5621 23.4525C76.2355 22.8954 76.0707 22.2599 76.0857 21.616C76.1035 20.963 76.303 20.3275 76.6624 19.7795C76.9812 19.2524 77.4412 18.8228 77.9916 18.5387C78.5829 18.23 79.2414 18.0687 79.91 18.0687C80.5786 18.0687 81.2371 18.23 81.8284 18.5387C82.3788 18.8228 82.8388 19.2524 83.1576 19.7795C83.4817 20.3376 83.6464 20.9724 83.634 21.616C83.649 22.2599 83.4841 22.8954 83.1576 23.4525C82.8469 23.9922 82.3854 24.4317 81.8284 24.7182C81.2323 25.0112 80.5756 25.1637 79.91 25.1637C79.2443 25.1637 78.5877 25.0112 77.9916 24.7182H77.8912ZM81.3018 23.1795C81.6642 22.7374 81.8621 22.1854 81.8621 21.616C81.8621 21.0467 81.6642 20.4947 81.3018 20.0525C81.1057 19.8564 80.871 19.7023 80.6121 19.5998C80.3532 19.4973 80.0758 19.4487 79.7971 19.4569C79.5221 19.4476 79.2481 19.4958 78.9931 19.5984C78.7382 19.7011 78.508 19.8558 78.3176 20.0525C78.1193 20.2608 77.9659 20.5068 77.8668 20.7756C77.7676 21.0444 77.7247 21.3303 77.7408 21.616C77.7247 21.9017 77.7676 22.1877 77.8668 22.4565C77.9659 22.7252 78.1193 22.9713 78.3176 23.1795C78.508 23.3762 78.7382 23.531 78.9931 23.6336C79.2481 23.7362 79.5221 23.7845 79.7971 23.7752C80.0758 23.7834 80.3532 23.7347 80.6121 23.6323C80.871 23.5298 81.1057 23.3757 81.3018 23.1795Z" fill="white"/>
<path d="M89.2013 18.0671V19.6306H88.8252C88.5536 19.6133 88.2814 19.653 88.0264 19.7471C87.7714 19.8412 87.5394 19.9876 87.3456 20.1766C87.1498 20.3907 87 20.6418 86.9052 20.9148C86.8104 21.1878 86.7725 21.477 86.7939 21.7649V25.1401H85.1638V18.0671H86.6936V19.0847C86.9877 18.7158 87.3731 18.4283 87.8125 18.2501C88.2518 18.0718 88.7302 18.0088 89.2013 18.0671Z" fill="white"/>
<path d="M97.0505 22.1373H91.5585C91.5913 22.3807 91.6752 22.6146 91.8048 22.824C91.9344 23.0334 92.1067 23.2137 92.3108 23.3533C92.7511 23.6579 93.2785 23.8145 93.8155 23.8C94.1682 23.8157 94.5203 23.7575 94.8488 23.6292C95.1772 23.5009 95.4746 23.3054 95.7214 23.0555L96.5991 24.0482C96.2701 24.4188 95.8578 24.7078 95.3954 24.892C94.8731 25.0794 94.3208 25.1719 93.7653 25.165C93.0622 25.1756 92.3664 25.0226 91.734 24.7183C91.1703 24.4322 90.7006 23.9932 90.3798 23.4526C90.0646 22.891 89.9005 22.2586 89.9034 21.6161C89.8877 20.98 90.0528 20.3523 90.3798 19.8044C90.6846 19.2602 91.1477 18.8192 91.709 18.5387C92.266 18.2234 92.8979 18.0606 93.5396 18.0672C94.1707 18.0563 94.7936 18.2103 95.3452 18.5139C95.8879 18.8023 96.3328 19.2425 96.6242 19.7796C96.9349 20.3599 97.0903 21.0092 97.0756 21.6657C97.0756 21.6657 97.0505 21.9387 97.0505 22.1373ZM92.1854 19.8292C91.825 20.1523 91.5937 20.5926 91.5334 21.0701H95.4957C95.4561 20.592 95.2315 20.1475 94.8687 19.8292C94.4956 19.5248 94.0229 19.3659 93.5396 19.3825C93.0494 19.3709 92.5705 19.5289 92.1854 19.8292Z" fill="white"/>
</g>
<defs>
<clipPath id="clip0_37_572">
<rect width="113" height="34" fill="white"/>
</clipPath>
</defs>
</svg>
