<svg width="26" height="27" viewBox="0 0 26 27" fill="none" xmlns="http://www.w3.org/2000/svg">
<g clip-path="url(#clip0_43_5830)">
<path d="M26 13.25C26 6.07032 20.1797 0.250017 13 0.250017C5.8203 0.250017 0 6.07032 0 13.25C0 19.3467 4.19718 24.4623 9.8595 25.8672V17.2226H7.1788V13.25H9.8595V11.5382C9.8595 7.11344 11.8619 5.06256 16.206 5.06256C17.0296 5.06256 18.4507 5.22402 19.032 5.38553V8.98674C18.7252 8.95445 18.1923 8.93827 17.5302 8.93827C15.3985 8.93827 14.5749 9.74573 14.5749 11.8451V13.25H18.8212L18.0917 17.2226H14.5749V26.1548C21.0118 25.3773 26 19.8965 26 13.25Z" fill="#0866FF"/>
<path d="M18.0916 17.2226L18.8211 13.25H14.5749V11.845C14.5749 9.74568 15.3985 8.93828 17.5301 8.93828C18.1922 8.93828 18.7251 8.9544 19.0319 8.98669V5.38554C18.4506 5.22402 17.0295 5.06251 16.2059 5.06251C11.8619 5.06251 9.85941 7.11344 9.85941 11.5382V13.25H7.17871V17.2226H9.85941V25.8672C10.8652 26.1167 11.9169 26.25 12.9999 26.25C13.5331 26.25 14.0585 26.2171 14.5749 26.1548V17.2226H18.0916Z" fill="white"/>
</g>
<defs>
<clipPath id="clip0_43_5830">
<rect width="26" height="26" fill="white" transform="translate(0 0.25)"/>
</clipPath>
</defs>
</svg>
