<svg width="27" height="27" viewBox="0 0 27 27" fill="none" xmlns="http://www.w3.org/2000/svg">
<g clip-path="url(#clip0_43_5834)">
<path d="M13.6665 10.8864V15.9209H20.6628C20.3556 17.54 19.4337 18.911 18.051 19.8328L22.2701 23.1064C24.7282 20.8374 26.1464 17.5046 26.1464 13.5456C26.1464 12.6238 26.0637 11.7373 25.91 10.8865L13.6665 10.8864Z" fill="#4285F4"/>
<path d="M6.38083 15.7244L5.42927 16.4528L2.06104 19.0764C4.20012 23.3191 8.58434 26.25 13.6661 26.25C17.176 26.25 20.1187 25.0918 22.2697 23.1064L18.0506 19.8328C16.8924 20.6127 15.4151 21.0855 13.6661 21.0855C10.2861 21.0855 7.4144 18.8046 6.38615 15.7319L6.38083 15.7244Z" fill="#34A853"/>
<path d="M2.06095 7.42365C1.17463 9.17266 0.666504 11.1463 0.666504 13.2499C0.666504 15.3535 1.17463 17.3272 2.06095 19.0762C2.06095 19.088 6.38648 15.7199 6.38648 15.7199C6.12648 14.9399 5.9728 14.1126 5.9728 13.2498C5.9728 12.387 6.12648 11.5597 6.38648 10.7797L2.06095 7.42365Z" fill="#FBBC05"/>
<path d="M13.6664 5.42636C15.581 5.42636 17.2827 6.08816 18.6418 7.36454L22.3645 3.64186C20.1072 1.53826 17.1764 0.25 13.6664 0.25C8.58461 0.25 4.20012 3.16909 2.06104 7.42364L6.38643 10.78C7.41455 7.70725 10.2864 5.42636 13.6664 5.42636Z" fill="#EA4335"/>
</g>
<defs>
<clipPath id="clip0_43_5834">
<rect width="26" height="26" fill="white" transform="translate(0.666504 0.25)"/>
</clipPath>
</defs>
</svg>
