<svg width="26" height="27" viewBox="0 0 26 27" fill="none" xmlns="http://www.w3.org/2000/svg">
<g clip-path="url(#clip0_43_5836)">
<path d="M24.0807 0.25H1.91931C1.41027 0.25 0.922092 0.452212 0.562152 0.812152C0.202212 1.17209 0 1.66027 0 2.16931V24.3307C0 24.8397 0.202212 25.3279 0.562152 25.6879C0.922092 26.0478 1.41027 26.25 1.91931 26.25H24.0807C24.5897 26.25 25.0779 26.0478 25.4379 25.6879C25.7978 25.3279 26 24.8397 26 24.3307V2.16931C26 1.66027 25.7978 1.17209 25.4379 0.812152C25.0779 0.452212 24.5897 0.25 24.0807 0.25ZM7.74944 22.3988H3.84042V9.98195H7.74944V22.3988ZM5.79222 8.26125C5.34881 8.25875 4.91608 8.12496 4.54863 7.87676C4.18118 7.62856 3.89549 7.27708 3.72762 6.86666C3.55974 6.45625 3.5172 6.00531 3.60537 5.57074C3.69353 5.13618 3.90845 4.73747 4.223 4.42493C4.53755 4.11239 4.93763 3.90004 5.37276 3.81467C5.80788 3.72929 6.25854 3.77473 6.66786 3.94523C7.07719 4.11574 7.42683 4.40368 7.67267 4.77271C7.91851 5.14175 8.04952 5.57533 8.04917 6.01875C8.05335 6.31562 7.99772 6.61029 7.8856 6.88521C7.77347 7.16012 7.60715 7.40964 7.39654 7.61891C7.18592 7.82817 6.93534 7.99289 6.65971 8.10325C6.38408 8.2136 6.08906 8.26734 5.79222 8.26125ZM22.1578 22.4096H18.2506V15.6261C18.2506 13.6256 17.4001 13.0081 16.3024 13.0081C15.1432 13.0081 14.0057 13.8819 14.0057 15.6767V22.4096H10.0967V9.99097H13.8558V11.7117H13.9064C14.2838 10.9479 15.6054 9.6425 17.6222 9.6425C19.8033 9.6425 22.1596 10.9371 22.1596 14.7288L22.1578 22.4096Z" fill="#0A66C2"/>
</g>
<defs>
<clipPath id="clip0_43_5836">
<rect width="26" height="26" fill="white" transform="translate(0 0.25)"/>
</clipPath>
</defs>
</svg>
