<svg width="76" height="76" viewBox="0 0 76 76" fill="none" xmlns="http://www.w3.org/2000/svg">
<g id="Iconos/Windows/secure-window">
<path id="Vector" d="M41.125 66.125H13C9.54822 66.125 6.75 63.3269 6.75 59.875V16.125C6.75 12.6732 9.54822 9.875 13 9.875H63C66.4519 9.875 69.25 12.6732 69.25 16.125V38" stroke="#222222" stroke-width="4" stroke-linecap="round"/>
<path id="Vector_2" d="M6.75 22.375H69.25" stroke="#222222" stroke-width="4" stroke-linecap="round" stroke-linejoin="round"/>
<path id="Vector_3" d="M16.125 16.1563L16.1563 16.1216" stroke="#222222" stroke-width="4" stroke-linecap="round" stroke-linejoin="round"/>
<path id="Vector_4" d="M25.5 16.1563L25.5312 16.1216" stroke="#222222" stroke-width="4" stroke-linecap="round" stroke-linejoin="round"/>
<path id="Vector_5" d="M34.875 16.1563L34.9062 16.1216" stroke="#222222" stroke-width="4" stroke-linecap="round" stroke-linejoin="round"/>
<path id="Vector_6" d="M59.8509 44.6407L67.8366 46.6688C68.6678 46.88 69.2541 47.6354 69.2284 48.4925C68.6919 66.4872 58.3125 69.25 58.3125 69.25C58.3125 69.25 47.9331 66.4872 47.3966 48.4925C47.3709 47.6354 47.9572 46.88 48.7884 46.6688L56.7741 44.6407C57.7837 44.3844 58.8412 44.3844 59.8509 44.6407Z" stroke="#222222" stroke-width="4" stroke-linecap="round" stroke-linejoin="round"/>
</g>
</svg>
