<svg width="32" height="32" viewBox="0 0 32 32" fill="none" xmlns="http://www.w3.org/2000/svg">
<g clip-path="url(#clip0_185_1377)">
<path d="M11.3848 12.3984C11.3118 11.7161 11.0046 11.1849 10.4629 10.8047C9.92643 10.4245 9.22852 10.2344 8.36914 10.2344C7.76497 10.2344 7.24675 10.3255 6.81445 10.5078C6.38216 10.6901 6.05143 10.9375 5.82227 11.25C5.5931 11.5625 5.47591 11.9193 5.4707 12.3203C5.4707 12.6536 5.54622 12.9427 5.69727 13.1875C5.85352 13.4323 6.06445 13.6406 6.33008 13.8125C6.5957 13.9792 6.88997 14.1198 7.21289 14.2344C7.53581 14.349 7.86133 14.4453 8.18945 14.5234L9.68945 14.8984C10.2936 15.0391 10.8743 15.2292 11.4316 15.4687C11.9941 15.7083 12.4967 16.0104 12.9395 16.375C13.3874 16.7396 13.7415 17.1797 14.002 17.6953C14.2624 18.2109 14.3926 18.8151 14.3926 19.5078C14.3926 20.4453 14.153 21.2708 13.6738 21.9844C13.1947 22.6927 12.502 23.2474 11.5957 23.6484C10.6947 24.0443 9.60352 24.2422 8.32227 24.2422C7.07747 24.2422 5.99674 24.0495 5.08008 23.6641C4.16862 23.2786 3.45508 22.7161 2.93945 21.9766C2.42904 21.237 2.15299 20.3359 2.11133 19.2734H4.96289C5.00456 19.8307 5.17643 20.2943 5.47852 20.6641C5.7806 21.0339 6.17383 21.3099 6.6582 21.4922C7.14779 21.6745 7.69466 21.7656 8.29883 21.7656C8.92904 21.7656 9.48112 21.6719 9.95508 21.4844C10.4342 21.2917 10.8092 21.026 11.0801 20.6875C11.3509 20.3437 11.4889 19.9427 11.4941 19.4844C11.4889 19.0677 11.3665 18.724 11.127 18.4531C10.8874 18.1771 10.5514 17.9479 10.1191 17.7656C9.69206 17.5781 9.19206 17.4115 8.61914 17.2656L6.79883 16.7969C5.48112 16.4583 4.43945 15.9453 3.67383 15.2578C2.91341 14.5651 2.5332 13.6458 2.5332 12.5C2.5332 11.5573 2.78841 10.7318 3.29883 10.0234C3.81445 9.3151 4.51497 8.76562 5.40039 8.375C6.28581 7.97917 7.28841 7.78125 8.4082 7.78125C9.54362 7.78125 10.5384 7.97917 11.3926 8.375C12.252 8.76562 12.9264 9.3099 13.416 10.0078C13.9056 10.7005 14.1582 11.4974 14.1738 12.3984H11.3848Z" fill="#FB4D0C"/>
<path d="M15.8828 8H19.1563L23.0703 15.0781H23.2266L27.1406 8H30.4141L24.5938 18.0313V24H21.7031V18.0313L15.8828 8Z" fill="#FBD40C"/>
</g>
<defs>
<clipPath id="clip0_185_1377">
<rect width="32" height="32" fill="white"/>
</clipPath>
</defs>
</svg>
