<svg width="76" height="76" viewBox="0 0 76 76" fill="none" xmlns="http://www.w3.org/2000/svg">
<g id="Iconos/Ecomerce/shop" clip-path="url(#clip0_69_1031)">
<path id="Vector" d="M53.5417 52.0709V63.0542C53.5417 63.4748 53.8894 63.8189 54.3142 63.8189C54.7391 63.8189 55.0867 63.4748 55.0867 63.0542V52.0709C55.0867 51.6503 54.7391 51.3062 54.3142 51.3062C53.8894 51.3062 53.5417 51.6503 53.5417 52.0709Z" fill="#222222"/>
<path id="Vector_2" d="M52.4313 7.61189C52.4313 5.22213 50.4711 3.27209 48.0474 3.27209H18.3255C15.9114 3.27209 13.9415 5.22213 13.9415 7.61189V16.7312C13.9415 17.1518 14.2892 17.4959 14.714 17.4959C15.1389 17.4959 15.4865 17.1518 15.4865 16.7312V7.61189C15.4865 6.06333 16.7612 4.80154 18.3255 4.80154H48.0474C49.6117 4.80154 50.8863 6.06333 50.8863 7.61189V21.4725C50.8863 21.4725 50.8863 21.482 50.8863 21.4916C45.0926 23.4416 40.9114 28.8616 40.9114 35.247C40.9114 41.6324 45.0926 47.0524 50.8766 49.0024V61.8019C50.8766 63.3505 49.602 64.6123 48.0377 64.6123H18.3158C16.7515 64.6123 15.4769 63.3505 15.4769 61.8019V20.7173C15.4769 20.2967 15.1293 19.9526 14.7044 19.9526C14.2795 19.9526 13.9319 20.2967 13.9319 20.7173V61.7924C13.9319 64.1821 15.8921 66.1322 18.3158 66.1322H48.0377C50.4518 66.1322 52.4216 64.1821 52.4216 61.7924V49.423C53.4452 49.6429 54.4977 49.7767 55.5889 49.7767C63.6905 49.7767 70.276 43.2574 70.276 35.2374C70.276 27.2174 63.6905 20.6982 55.5889 20.6982C54.4977 20.6982 53.4452 20.8224 52.4216 21.0519V7.61189H52.4313ZM68.7407 35.2374C68.7407 42.4067 62.8504 48.2472 55.5986 48.2472C48.3467 48.2472 42.4564 42.4162 42.4564 35.2374C42.4564 28.0586 48.3467 22.2276 55.5986 22.2276C62.8504 22.2276 68.7407 28.0586 68.7407 35.2374Z" fill="#222222"/>
<path id="Vector_3" d="M25.471 67.6138C24.177 67.6138 23.1245 68.6558 23.1245 69.9367C23.1245 71.2176 24.177 72.2595 25.471 72.2595H40.921C42.2149 72.2595 43.2674 71.2176 43.2674 69.9367C43.2674 68.6558 42.2149 67.6138 40.921 67.6138H25.471ZM41.7224 69.9367C41.7224 70.3764 41.3651 70.7301 40.921 70.7301H25.471C25.0268 70.7301 24.6695 70.3764 24.6695 69.9367C24.6695 69.497 25.0268 69.1433 25.471 69.1433H40.921C41.3651 69.1433 41.7224 69.497 41.7224 69.9367Z" fill="#222222"/>
<path id="Vector_4" d="M18.2964 13.0032H36.6819C37.1068 13.0032 37.4544 12.6591 37.4544 12.2385C37.4544 11.8179 37.1068 11.4738 36.6819 11.4738H18.2964C17.8716 11.4738 17.5239 11.8179 17.5239 12.2385C17.5239 12.6591 17.8716 13.0032 18.2964 13.0032Z" fill="#222222"/>
<path id="Vector_5" d="M18.2964 16.0047H36.6819C37.1068 16.0047 37.4544 15.6606 37.4544 15.24C37.4544 14.8194 37.1068 14.4753 36.6819 14.4753H18.2964C17.8716 14.4753 17.5239 14.8194 17.5239 15.24C17.5239 15.6606 17.8716 16.0047 18.2964 16.0047Z" fill="#222222"/>
<path id="Vector_6" d="M18.2964 18.9967H36.6819C37.1068 18.9967 37.4544 18.6525 37.4544 18.2319C37.4544 17.8113 37.1068 17.4672 36.6819 17.4672H18.2964C17.8716 17.4672 17.5239 17.8113 17.5239 18.2319C17.5239 18.6525 17.8716 18.9967 18.2964 18.9967Z" fill="#222222"/>
<path id="Vector_7" d="M18.2964 21.9887H36.6819C37.1068 21.9887 37.4544 21.6445 37.4544 21.224C37.4544 20.8034 37.1068 20.4592 36.6819 20.4592H18.2964C17.8716 20.4592 17.5239 20.8034 17.5239 21.224C17.5239 21.6445 17.8716 21.9887 18.2964 21.9887Z" fill="#222222"/>
<path id="Vector_8" d="M18.2964 36.8911H25.3455C25.7704 36.8911 26.118 36.547 26.118 36.1264C26.118 35.7058 25.7704 35.3617 25.3455 35.3617H18.2964C17.8716 35.3617 17.5239 35.7058 17.5239 36.1264C17.5239 36.547 17.8716 36.8911 18.2964 36.8911Z" fill="#222222"/>
<path id="Vector_9" d="M18.2964 39.8927H25.3455C25.7704 39.8927 26.118 39.5485 26.118 39.1279C26.118 38.7073 25.7704 38.3632 25.3455 38.3632H18.2964C17.8716 38.3632 17.5239 38.7073 17.5239 39.1279C17.5239 39.5485 17.8716 39.8927 18.2964 39.8927Z" fill="#222222"/>
<path id="Vector_10" d="M18.2964 42.8847H25.3455C25.7704 42.8847 26.118 42.5405 26.118 42.1199C26.118 41.6993 25.7704 41.3552 25.3455 41.3552H18.2964C17.8716 41.3552 17.5239 41.6993 17.5239 42.1199C17.5239 42.5405 17.8716 42.8847 18.2964 42.8847Z" fill="#222222"/>
<path id="Vector_11" d="M18.2964 45.8766H25.3455C25.7704 45.8766 26.118 45.5325 26.118 45.1119C26.118 44.6913 25.7704 44.3472 25.3455 44.3472H18.2964C17.8716 44.3472 17.5239 44.6913 17.5239 45.1119C17.5239 45.5325 17.8716 45.8766 18.2964 45.8766Z" fill="#222222"/>
<path id="Vector_12" d="M37.1841 35.3617H30.135C29.7102 35.3617 29.3625 35.7058 29.3625 36.1264C29.3625 36.547 29.7102 36.8911 30.135 36.8911H37.1841C37.609 36.8911 37.9566 36.547 37.9566 36.1264C37.9566 35.7058 37.609 35.3617 37.1841 35.3617Z" fill="#222222"/>
<path id="Vector_13" d="M37.1841 38.3632H30.135C29.7102 38.3632 29.3625 38.7073 29.3625 39.1279C29.3625 39.5485 29.7102 39.8927 30.135 39.8927H37.1841C37.609 39.8927 37.9566 39.5485 37.9566 39.1279C37.9566 38.7073 37.609 38.3632 37.1841 38.3632Z" fill="#222222"/>
<path id="Vector_14" d="M37.1841 41.3552H30.135C29.7102 41.3552 29.3625 41.6993 29.3625 42.1199C29.3625 42.5405 29.7102 42.8847 30.135 42.8847H37.1841C37.609 42.8847 37.9566 42.5405 37.9566 42.1199C37.9566 41.6993 37.609 41.3552 37.1841 41.3552Z" fill="#222222"/>
<path id="Vector_15" d="M37.1841 44.3472H30.135C29.7102 44.3472 29.3625 44.6913 29.3625 45.1119C29.3625 45.5325 29.7102 45.8766 30.135 45.8766H37.1841C37.609 45.8766 37.9566 45.5325 37.9566 45.1119C37.9566 44.6913 37.609 44.3472 37.1841 44.3472Z" fill="#222222"/>
<path id="Vector_16" d="M74.7275 73.961H65.0906C64.6657 73.961 64.3181 74.3051 64.3181 74.7257C64.3181 75.1463 64.6657 75.4904 65.0906 75.4904H74.7275C75.1524 75.4904 75.5 75.1463 75.5 74.7257C75.5 74.3051 75.1524 73.961 74.7275 73.961Z" fill="#222222"/>
<path id="Vector_17" d="M61.5178 73.961H53.1072C54.3239 72.8808 55.0867 71.3132 55.0867 69.5734V66.6388C55.0867 66.2182 54.7391 65.8741 54.3142 65.8741C53.8893 65.8741 53.5417 66.2182 53.5417 66.6388V69.5734C53.5417 71.9823 51.5718 73.9419 49.1385 73.961H17.2536C14.8299 73.9419 12.86 71.9823 12.86 69.5734V6.41703C12.86 3.9986 14.8492 2.02944 17.2825 2.02944H49.1095C51.5525 2.02944 53.5417 3.9986 53.5417 6.41703V18.4136C53.5417 18.8342 53.8893 19.1783 54.3142 19.1783C54.7391 19.1783 55.0867 18.8342 55.0867 18.4136V6.41703C55.0867 3.1574 52.4023 0.5 49.1095 0.5H17.2825C13.9898 0.5 11.315 3.1574 11.315 6.41703V69.583C11.315 71.3227 12.0778 72.8904 13.2945 73.9706H1.2725C0.847625 73.9706 0.5 74.3147 0.5 74.7353C0.5 75.1559 0.847625 75.5 1.2725 75.5H17.2536C17.2536 75.5 17.2729 75.5 17.2825 75.5H49.1095C49.1095 75.5 49.1288 75.5 49.1385 75.5H61.5178C61.9426 75.5 62.2903 75.1559 62.2903 74.7353C62.2903 74.3147 61.9426 73.9706 61.5178 73.9706V73.961Z" fill="#222222"/>
<path id="Vector_18" d="M47.9702 27.9248C49.9883 25.8601 52.7017 24.7225 55.6083 24.7225C61.4696 24.7225 66.2398 29.4447 66.2398 35.247C66.2398 41.0493 61.4696 45.7715 55.6083 45.7715C49.7469 45.7715 44.9767 41.0493 44.9767 35.247C44.9767 33.5837 45.363 31.9874 46.1162 30.5057C46.3093 30.1329 46.1548 29.6645 45.7782 29.4734C45.4016 29.2822 44.9381 29.4351 44.745 29.8079C43.8856 31.4999 43.4414 33.3256 43.4414 35.2374C43.4414 41.881 48.9068 47.2914 55.6179 47.2914C62.329 47.2914 67.7944 41.8905 67.7944 35.2374C67.7944 28.5844 62.329 23.1835 55.6179 23.1835C52.2865 23.1835 49.1869 24.4836 46.8694 26.8542C46.57 27.1601 46.5797 27.638 46.8887 27.9344C47.1977 28.2307 47.6805 28.2211 47.9798 27.9152L47.9702 27.9248Z" fill="#222222"/>
<path id="Vector_19" d="M53.9377 38.7456C53.6866 38.4206 53.5224 38.0382 53.4259 37.589L51.2146 37.8279C51.3884 38.9272 51.7747 39.7875 52.383 40.3898C52.9913 40.992 53.7832 41.3552 54.7681 41.4699V42.9994H55.9944V41.4317C57.0952 41.2787 57.9547 40.8486 58.5727 40.1603C59.1907 39.4625 59.4996 38.6118 59.4996 37.5985C59.4996 36.6904 59.2582 35.9448 58.7658 35.3713C58.2733 34.7882 57.3463 34.3198 55.9944 33.9565V30.6778C56.5448 30.9168 56.8828 31.3565 57.0083 32.0256L59.152 31.7484C59.0072 30.9072 58.6692 30.2381 58.1381 29.741C57.607 29.244 56.8925 28.9381 55.9944 28.8329V28.0013H54.7681V28.8329C53.7928 28.9285 53.0203 29.2917 52.4313 29.9131C51.8423 30.5344 51.5526 31.3087 51.5526 32.2264C51.5526 33.144 51.8133 33.8992 52.3251 34.5396C52.8465 35.1705 53.6576 35.6485 54.7584 35.9639V39.4817C54.4494 39.3383 54.1791 39.0993 53.928 38.7743L53.9377 38.7456ZM55.9944 36.2985C56.5062 36.4419 56.8732 36.6522 57.0952 36.9198C57.3173 37.1875 57.4332 37.5125 57.4332 37.8853C57.4332 38.3059 57.298 38.6691 57.0373 38.9846C56.7766 39.3 56.429 39.4912 56.0041 39.5677V36.2985H55.9944ZM53.9473 32.9242C53.7638 32.6661 53.6769 32.3984 53.6769 32.1021C53.6769 31.7771 53.7735 31.4808 53.9763 31.2131C54.1694 30.9455 54.4398 30.7543 54.7777 30.6396V33.5455C54.4108 33.3926 54.1404 33.1823 53.957 32.9242H53.9473Z" fill="#222222"/>
</g>
<defs>
<clipPath id="clip0_69_1031">
<rect width="75" height="75" fill="white" transform="translate(0.5 0.5)"/>
</clipPath>
</defs>
</svg>
