<svg width="180" height="57" viewBox="0 0 180 57" fill="none" xmlns="http://www.w3.org/2000/svg">
<g clip-path="url(#clip0_100_1159)">
<path d="M30.7322 43.4211V56.25H29.0343V46.6834L24.7456 56.25H23.5495L19.2434 46.666V56.25H17.5454V43.4211H19.3717L24.1447 54.0267L28.9176 43.4211H30.7264H30.7322Z" fill="#FBD40C"/>
<path d="M39.5136 43.3282V56.25H37.8157V43.3282H39.5136Z" fill="#FBD40C"/>
<path d="M56.8258 56.25H55.1278L48.3068 45.9578V56.25H46.6089V43.3049H48.3068L55.1278 53.5797V43.3049H56.8258V56.25Z" fill="#FBD40C"/>
<path d="M65.6247 43.3282V56.25H63.9268V43.3282H65.6247Z" fill="#FBD40C"/>
<path d="M85.9009 43.4211V56.25H84.203V46.6834L79.9143 56.25H78.7182L74.4121 46.666V56.25H72.7141V43.4211H74.5404L79.3133 54.0267L84.0863 43.4211H85.8951H85.9009Z" fill="#FBD40C"/>
<path d="M100.657 53.3765H94.9918L93.9473 56.25H92.156L96.8531 43.3978H98.8078L103.487 56.25H101.696L100.652 53.3765H100.657ZM100.179 52.0066L97.8275 45.4818L95.4819 52.0066H100.179Z" fill="#FBD40C"/>
<path d="M116.592 56.25L113.5 50.9675H111.452V56.25H109.754V43.3282H113.949C114.929 43.3282 115.758 43.4965 116.435 43.8274C117.112 44.1583 117.619 44.6111 117.952 45.18C118.284 45.7488 118.454 46.399 118.454 47.1304C118.454 48.0186 118.197 48.808 117.678 49.4814C117.164 50.1606 116.388 50.6134 115.355 50.834L118.617 56.25H116.587H116.592ZM111.452 49.6149H113.949C114.871 49.6149 115.56 49.3885 116.021 48.9358C116.482 48.483 116.709 47.8851 116.709 47.1304C116.709 46.3758 116.482 45.7721 116.026 45.3483C115.571 44.9303 114.877 44.7156 113.949 44.7156H111.452V49.6091V49.6149Z" fill="#FBD40C"/>
<path d="M132.341 56.25L126.99 50.3522V56.25H125.292V43.3282H126.99V49.3189L132.358 43.3282H134.5L128.612 49.8007L134.558 56.2558H132.341V56.25Z" fill="#FBD40C"/>
<path d="M142.371 44.6981V49.017H147.103V50.4102H142.371V54.8626H147.663V56.2558H140.673V43.3108H147.663V44.704H142.371V44.6981Z" fill="#FBD40C"/>
<path d="M162.443 43.3282V44.6981H158.901V56.25H157.203V44.6981H153.644V43.3282H162.443Z" fill="#FBD40C"/>
<path d="M5.17553 27.0453C3.62346 26.4009 2.3923 25.5186 1.48789 24.4098C0.583487 23.3011 0.0875231 22.0704 0 20.7237H6.08577C6.19664 21.5712 6.65176 22.2678 7.4453 22.8251C8.23884 23.3823 9.2191 23.6552 10.4036 23.6552C11.5881 23.6552 12.4575 23.4462 13.0993 23.0224C13.747 22.5987 14.0737 22.0588 14.0737 21.3971C14.0737 20.683 13.6769 20.149 12.8892 19.7949C12.0957 19.435 10.8354 19.046 9.11407 18.6281C7.3286 18.2334 5.86988 17.8212 4.73792 17.3974C3.60012 16.9737 2.61986 16.3293 1.80298 15.4586C0.980259 14.582 0.571818 13.4094 0.571818 11.9292C0.571818 10.7159 0.956919 9.6072 1.71545 8.60294C2.47399 7.59868 3.57094 6.80921 4.99465 6.22291C6.41836 5.64241 8.09297 5.35217 10.0185 5.35217C12.8659 5.35217 15.1415 6.00232 16.8394 7.31424C18.5374 8.62035 19.471 10.3851 19.6402 12.6026H13.8578C13.7761 11.7318 13.3735 11.0352 12.6733 10.5244C11.9673 10.0077 11.0279 9.75232 9.84927 9.75232C8.75814 9.75232 7.91209 9.93808 7.32277 10.3096C6.73344 10.6811 6.43586 11.1919 6.43586 11.8537C6.43586 12.5909 6.83847 13.154 7.64368 13.5371C8.4489 13.9203 9.70339 14.3092 11.3955 14.7039C13.1226 15.0987 14.5463 15.5108 15.6666 15.9346C16.7869 16.3584 17.7614 17.0085 18.5782 17.8967C19.3951 18.7848 19.8211 19.9516 19.8502 21.4029C19.8502 22.6683 19.4651 23.8061 18.7066 24.8104C17.9422 25.8146 16.8511 26.5983 15.4274 27.1672C14.0037 27.7361 12.3408 28.0205 10.4444 28.0205C8.54809 28.0205 6.73344 27.6954 5.17553 27.0511V27.0453Z" fill="#FB4D0C"/>
<path d="M47.8052 5.70627V27.6606H41.7195V24.8858C40.9434 25.8378 39.9281 26.5809 38.6795 27.1207C37.4308 27.6606 36.0655 27.9334 34.6009 27.9334C32.7337 27.9334 31.0766 27.5735 29.6413 26.8421C28.2001 26.1165 27.0739 25.0484 26.257 23.632C25.4343 22.2156 25.0259 20.5321 25.0259 18.5817V5.70627H31.065V17.7922C31.065 19.5337 31.5376 20.8746 32.4887 21.815C33.4398 22.7554 34.7351 23.2198 36.3689 23.2198C38.0026 23.2198 39.3447 22.7496 40.2957 21.815C41.2468 20.8804 41.7195 19.5395 41.7195 17.7922V5.70627H47.8052Z" fill="#FB4D0C"/>
<path d="M63.4426 6.35642C64.8079 5.68305 66.3717 5.34636 68.1222 5.34636C70.1644 5.34636 72.014 5.81076 73.6653 6.73375C75.3166 7.65673 76.6294 8.96865 77.5922 10.6753C78.5607 12.382 79.0392 14.3557 79.0392 16.6022C79.0392 18.8487 78.5607 20.834 77.5922 22.5639C76.6294 24.2937 75.3224 25.6347 73.6653 26.5867C72.0082 27.5387 70.1644 28.0147 68.1222 28.0147C66.3717 28.0147 64.8255 27.6838 63.4834 27.0221C62.1472 26.3603 61.062 25.5302 60.2276 24.5259V38.1153H54.1885V5.70627H60.2276V8.87577C61.0036 7.87152 62.0772 7.0356 63.4426 6.35642ZM71.9907 13.1714C71.4014 12.2078 70.6253 11.4764 69.6626 10.9714C68.694 10.4663 67.6554 10.2167 66.5351 10.2167C65.4148 10.2167 64.4112 10.4721 63.4484 10.9888C62.4798 11.5054 61.7096 12.2485 61.1203 13.2237C60.531 14.2047 60.2334 15.3541 60.2334 16.6718C60.2334 17.9896 60.531 19.1447 61.1203 20.12C61.7096 21.0952 62.4857 21.844 63.4484 22.3549C64.4112 22.8715 65.4381 23.1269 66.5351 23.1269C67.632 23.1269 68.694 22.8657 69.6626 22.3375C70.6253 21.8092 71.4014 21.0546 71.9907 20.0793C72.58 19.1041 72.8776 17.9373 72.8776 16.5906C72.8776 15.2438 72.58 14.1293 71.9907 13.1598V13.1714Z" fill="#FB4D0C"/>
<path d="M105.92 18.3495H88.445C88.5908 19.9342 89.1918 21.1765 90.2596 22.0762C91.3216 22.976 92.6344 23.423 94.1865 23.423C96.4271 23.423 98.0258 22.5406 98.9769 20.7701H105.489C104.8 22.8831 103.476 24.6188 101.521 25.983C99.5662 27.3413 97.1623 28.0205 94.3149 28.0205C92.0159 28.0205 89.9504 27.5503 88.1241 26.6157C86.2977 25.6753 84.874 24.3518 83.8529 22.6335C82.8318 20.9152 82.3184 18.9358 82.3184 16.6892C82.3184 14.4427 82.8202 12.4226 83.8296 10.7043C84.839 8.99187 86.2452 7.66834 88.0599 6.74536C89.8687 5.82237 91.9576 5.35797 94.3149 5.35797C96.6721 5.35797 98.621 5.80495 100.418 6.70472C102.215 7.60449 103.61 8.87577 104.602 10.5302C105.594 12.1788 106.09 14.077 106.09 16.219C106.09 17.0085 106.031 17.7225 105.92 18.3611V18.3495ZM99.8405 14.6169C99.8113 13.1889 99.2512 12.0511 98.16 11.192C97.0631 10.3328 95.7269 9.90325 94.1457 9.90325C92.6461 9.90325 91.3916 10.3212 90.3705 11.1513C89.3494 11.9814 88.7251 13.1366 88.4917 14.6169H99.8405Z" fill="#FB4D0C"/>
<path d="M120.006 6.37964C121.254 5.71788 122.69 5.387 124.3 5.387V11.2094H122.702C120.805 11.2094 119.376 11.6215 118.413 12.44C117.444 13.2585 116.966 14.6865 116.966 16.7183V27.6548H110.927V5.70627H116.966V9.11378C117.742 7.95279 118.757 7.04141 120.006 6.37964Z" fill="#FB4D0C"/>
<path d="M152.734 0L142.552 18.0302V27.6606H136.513V18.0302L126.284 0H133.105L139.576 12.6374L146 0H152.734Z" fill="#FB4D0C"/>
<path d="M156.55 10.6985C157.512 8.98607 158.819 7.66254 160.476 6.73955C162.128 5.81656 163.977 5.35217 166.02 5.35217C167.799 5.35217 169.363 5.68305 170.699 6.34481C172.035 7.00658 173.109 7.83668 173.914 8.84094V5.71207H180V27.6664H173.914V24.4563C173.138 25.4837 172.064 26.3371 170.699 27.0104C169.334 27.6838 167.758 28.0205 165.973 28.0205C163.96 28.0205 162.128 27.5445 160.471 26.5925C158.819 25.6405 157.506 24.2995 156.544 22.5697C155.575 20.8398 155.097 18.8545 155.097 16.608C155.097 14.3615 155.575 12.4226 156.544 10.7043L156.55 10.6985ZM173.056 13.2121C172.479 12.2484 171.703 11.5054 170.728 10.9946C169.748 10.4779 168.698 10.2225 167.577 10.2225C166.457 10.2225 165.419 10.4721 164.467 10.9772C163.516 11.4764 162.752 12.2136 162.163 13.1772C161.573 14.1409 161.276 15.2844 161.276 16.608C161.276 17.9315 161.573 19.0867 162.163 20.0735C162.752 21.0662 163.528 21.8208 164.491 22.3491C165.454 22.8773 166.481 23.1385 167.577 23.1385C168.674 23.1385 169.748 22.8831 170.728 22.3665C171.703 21.8498 172.479 21.1126 173.056 20.149C173.628 19.1854 173.92 18.0302 173.92 16.6834C173.92 15.3367 173.634 14.1815 173.056 13.2179V13.2121Z" fill="#FB4D0C"/>
</g>
<defs>
<clipPath id="clip0_100_1159">
<rect width="180" height="56.25" fill="white"/>
</clipPath>
</defs>
</svg>
