<svg width="76" height="76" viewBox="0 0 76 76" fill="none" xmlns="http://www.w3.org/2000/svg">
<g id="Iconos/Ecomerce/carrito" clip-path="url(#clip0_69_810)">
<path id="Vector" d="M8.18636 73.985H1.2725C0.847625 73.985 0.5 74.3259 0.5 74.7425C0.5 75.1591 0.847625 75.5 1.2725 75.5H8.18636C8.61124 75.5 8.95886 75.1591 8.95886 74.7425C8.95886 74.3259 8.61124 73.985 8.18636 73.985Z" fill="#222222"/>
<path id="Vector_2" d="M74.7275 72.4713H54.8839C56.0041 71.4364 56.7186 69.9742 56.7186 68.3505C56.7186 66.7269 56.0137 65.2552 54.8839 64.2298H56.7669C57.1918 64.2298 57.5394 63.888 57.5394 63.4702C57.5394 63.0524 57.1918 62.7106 56.7669 62.7106H29.9322C26.6684 62.7106 23.7908 60.6122 23.0956 57.7258L22.3038 54.4501L44.5904 57.8682L56.4676 59.6912C56.7476 59.7292 57.0276 59.7577 57.298 59.7577C59.5382 59.7577 61.6143 58.3904 62.4351 56.2921L66.2397 46.5788C66.3942 46.1895 66.1914 45.7433 65.7955 45.6008C65.3996 45.4489 64.9457 45.6483 64.8009 46.0376L63.478 49.4083L55.135 48.3354L59.123 36.9415L68.1419 37.4922L66.4135 41.9168C66.259 42.3061 66.4618 42.7524 66.8577 42.8948C66.9446 42.9328 67.0411 42.9423 67.1377 42.9423C67.4467 42.9423 67.7364 42.7619 67.8619 42.458L73.617 27.76C74.0902 26.9054 74.0709 25.9085 73.5784 25.0634C73.0763 24.2089 72.1686 23.6962 71.1547 23.6962H53.8797C56.5641 21.0756 58.2346 17.4485 58.2346 13.4417C58.2346 5.4755 51.6491 -1 43.5475 -1C35.4459 -1 28.8604 5.4755 28.8604 13.4417C28.8604 17.4485 30.5309 21.0756 33.2153 23.6962H14.8781L13.0628 16.1857C12.3675 13.3088 9.64446 11.3054 6.44824 11.3054H1.2725C0.847625 11.3054 0.5 11.6472 0.5 12.0649C0.5 12.4827 0.847625 12.8245 1.2725 12.8245H6.44824C8.89127 12.8245 11.0446 14.3912 11.566 16.537L14.5112 28.7284C14.5981 29.0798 14.9168 29.3171 15.2644 29.3171C15.3223 29.3171 15.3803 29.3171 15.4479 29.2981C15.8631 29.2032 16.1238 28.7949 16.0176 28.3866L15.2547 25.2248H23.4915L25.0268 33.3335L17.0894 32.8492L16.7514 31.463C16.6549 31.0547 16.23 30.7983 15.8244 30.9028C15.4092 30.9977 15.1485 31.406 15.2547 31.8143L20.5367 53.7189L21.5892 58.0866C22.4583 61.7041 25.8959 64.2393 29.9322 64.2393H30.7047C29.5846 65.2742 28.87 66.7364 28.87 68.36C28.87 69.9837 29.5749 71.4459 30.7047 72.4808H12.242C11.8171 72.4808 11.4695 72.8226 11.4695 73.2404C11.4695 73.6582 11.8171 74 12.242 74H35.1852C35.3011 74 35.417 73.9715 35.5135 73.924C38.2462 73.4968 40.3416 71.1705 40.3416 68.36C40.3416 66.7364 39.6367 65.2647 38.507 64.2393H47.072C45.9519 65.2742 45.2374 66.7364 45.2374 68.36C45.2374 69.9837 45.9423 71.4459 47.072 72.4808H42.2825C41.8577 72.4808 41.51 72.8226 41.51 73.2404C41.51 73.6582 41.8577 74 42.2825 74H74.7275C75.1524 74 75.5 73.6582 75.5 73.2404C75.5 72.8226 75.1524 72.4808 74.7275 72.4808V72.4713ZM20.1118 45.373L27.4892 46.3224L28.9376 53.9373L21.9175 52.8644L20.1118 45.3824V45.373ZM47.2555 36.2104L45.5174 47.101L38.3718 46.18L37.4737 35.6027L47.2555 36.2009V36.2104ZM37.3482 34.0835L36.6819 26.2028C38.7387 27.2757 41.0755 27.8929 43.5572 27.8929C45.3822 27.8929 47.13 27.5511 48.7426 26.9434L47.5066 34.7102L37.3579 34.0835H37.3482ZM45.585 56.482L46.8113 48.8006L53.0589 49.5982L50.3938 57.2131L45.585 56.4725V56.482ZM44.0593 56.2446L39.1636 55.4945L38.507 47.7277L45.2856 48.5917L44.0689 56.2351L44.0593 56.2446ZM36.8075 45.9806L28.8024 44.9552L26.9002 34.9571L35.9191 35.5078L36.8075 45.9806ZM36.9426 47.5283L37.5993 55.2571L30.5599 54.1747L29.1018 46.5218L36.9426 47.5283ZM62.9083 50.861L60.9963 55.7414C60.3301 57.4314 58.5243 58.4664 56.6993 58.1815L51.9388 57.4504L54.6136 49.7976L62.8986 50.861H62.9083ZM53.5707 48.136L47.0527 47.3004L48.8102 36.3053L57.5201 36.8371L53.5707 48.1265V48.136ZM72.2362 25.8325C72.4583 26.2218 72.4679 26.6776 72.2362 27.0668C72.2169 27.1048 72.1976 27.1333 72.1879 27.1713L68.7213 36.011L59.6348 35.4508L63.2076 25.2153H71.145C71.5989 25.2153 72.0044 25.4432 72.2265 25.8325H72.2362ZM61.5854 25.2153L58.0415 35.3464L49.0516 34.7957L50.4228 26.2028C50.9828 25.9085 51.5139 25.5761 52.0353 25.2153H61.595H61.5854ZM30.415 13.4512C30.415 6.33004 36.3053 0.528674 43.5572 0.528674C50.809 0.528674 56.6993 6.32055 56.6993 13.4512C56.6993 20.5818 50.809 26.3737 43.5572 26.3737C36.3053 26.3737 30.415 20.5818 30.415 13.4512ZM25.0462 25.2153H35.0404L35.7839 33.9791L26.6008 33.4189L25.0462 25.2153ZM25.3165 34.8621L27.1995 44.7558L19.7352 43.7968L17.466 34.3779L25.3262 34.8621H25.3165ZM38.7966 68.3505C38.7966 70.6198 36.9137 72.4713 34.6058 72.4713C32.298 72.4713 30.415 70.6198 30.415 68.3505C30.415 66.0813 32.298 64.2298 34.6058 64.2298C36.9137 64.2298 38.7966 66.0813 38.7966 68.3505ZM46.7823 68.3505C46.7823 66.0813 48.6653 64.2298 50.9732 64.2298C53.281 64.2298 55.164 66.0813 55.164 68.3505C55.164 70.6198 53.281 72.4713 50.9732 72.4713C48.6653 72.4713 46.7823 70.6198 46.7823 68.3505Z" fill="#222222"/>
<path id="Vector_3" d="M34.6059 72.6405C35.0308 72.6405 35.3784 72.2996 35.3784 71.883C35.3784 71.4664 35.0308 71.1255 34.6059 71.1255C33.7755 71.1255 33.0996 70.4628 33.0996 69.6579C33.0996 68.8531 33.7755 68.1809 34.6059 68.1809C35.4364 68.1809 36.1026 68.8436 36.1026 69.6579C36.1026 69.9231 36.035 70.1787 35.8999 70.4059C35.6874 70.7658 35.8033 71.2297 36.1702 71.4475C36.5372 71.6558 37.0103 71.5422 37.2324 71.1824C37.5125 70.7279 37.6573 70.1976 37.6573 69.6674C37.6573 68.0199 36.2861 66.6754 34.6156 66.6754C32.9451 66.6754 31.5642 68.0199 31.5642 69.6674C31.5642 71.3149 32.9354 72.65 34.6156 72.65L34.6059 72.6405Z" fill="#222222"/>
<path id="Vector_4" d="M50.9732 66.6659C49.2931 66.6659 47.9219 68.0104 47.9219 69.6579C47.9219 71.3055 49.2931 72.6405 50.9732 72.6405C51.3981 72.6405 51.7457 72.2997 51.7457 71.883C51.7457 71.4664 51.3981 71.1256 50.9732 71.1256C50.1428 71.1256 49.4669 70.4628 49.4669 69.6579C49.4669 68.8531 50.1428 68.1809 50.9732 68.1809C51.8037 68.1809 52.4796 68.8437 52.4796 69.6579C52.4796 69.9231 52.412 70.1787 52.2768 70.406C52.0644 70.7658 52.1803 71.2297 52.5472 71.4475C52.9142 71.6558 53.3873 71.5422 53.6094 71.1824C53.8894 70.7279 54.0343 70.1977 54.0343 69.6674C54.0343 68.0199 52.6631 66.6754 50.9829 66.6754L50.9732 66.6659Z" fill="#222222"/>
<path id="Vector_5" d="M43.5571 26.8319C50.2682 26.8319 55.7336 21.4727 55.7336 14.8921C55.7336 8.3115 50.2779 2.95233 43.5571 2.95233C40.2257 2.95233 37.1261 4.24005 34.8086 6.58824C34.5092 6.89123 34.5189 7.36465 34.8279 7.65818C35.1369 7.9517 35.6197 7.94223 35.919 7.63924C37.9372 5.59404 40.6506 4.46729 43.5571 4.46729C49.4185 4.46729 54.1886 9.14473 54.1886 14.8921C54.1886 20.6395 49.4185 25.3169 43.5571 25.3169C37.6958 25.3169 32.9256 20.6395 32.9256 14.8921C32.9256 13.2446 33.3119 11.6634 34.065 10.1957C34.2582 9.82646 34.1037 9.36251 33.7271 9.17314C33.3505 8.98377 32.8773 9.13526 32.6842 9.50453C31.8248 11.1805 31.3806 12.9889 31.3806 14.8826C31.3806 21.4632 36.846 26.8224 43.5571 26.8224V26.8319Z" fill="#222222"/>
<path id="Vector_6" d="M42.553 8.44409V13.9169H36.9717V15.8863H42.553V21.3591H44.5615V15.8863H50.1331V13.9169H44.5615V8.44409H42.553Z" fill="#222222"/>
</g>
<defs>
<clipPath id="clip0_69_810">
<rect width="75" height="75" fill="white" transform="translate(0.5 0.5)"/>
</clipPath>
</defs>
</svg>
