<svg width="76" height="76" viewBox="0 0 76 76" fill="none" xmlns="http://www.w3.org/2000/svg">
<g id="Iconos/Ecomerce/comprar" clip-path="url(#clip0_69_1148)">
<path id="Vector" d="M74.7364 74.5063H70.4319V66.3336C70.4319 65.915 70.0883 65.5725 69.6684 65.5725C69.2484 65.5725 68.9048 65.915 68.9048 66.3336V74.5063H65.2302V67.599C65.2302 67.5039 65.2111 67.4182 65.1729 67.3326C65.612 68.1889 66.2896 68.912 67.1486 69.4067C67.5113 69.616 67.979 69.4923 68.189 69.1213C68.399 68.7597 68.2749 68.2935 67.9026 68.0842C66.8146 67.4658 66.1274 66.3051 66.1178 65.0587C66.0988 63.1083 67.664 61.51 69.6206 61.4814C70.556 61.4719 71.4627 61.8239 72.1404 62.4899C72.818 63.1464 73.1998 64.0312 73.2093 64.9731C73.2284 66.3146 72.4935 67.5324 71.3005 68.1508C70.9282 68.3411 70.7851 68.8073 70.9759 69.1784C71.1096 69.4352 71.3768 69.5875 71.6536 69.5875C71.7681 69.5875 71.8922 69.5589 72.0067 69.5018C73.7152 68.617 74.7555 66.8759 74.7364 64.9541C74.7174 63.6031 74.1829 62.3377 73.2093 61.3958C72.8276 61.0247 72.4076 60.7298 71.9495 60.5015C73.0853 59.7498 73.8297 58.4654 73.8106 57.0098C73.7915 55.5541 72.9898 54.1936 71.7204 53.4705C71.3577 53.2612 70.89 53.3849 70.6801 53.7559C70.4701 54.127 70.5942 54.5837 70.9664 54.793C71.7681 55.2497 72.274 56.1059 72.2835 57.0288C72.3026 58.4654 71.1382 59.6547 69.697 59.6737C69.0098 59.6832 68.3321 59.4168 67.8358 58.9316C67.3395 58.4464 67.0532 57.7899 67.0436 57.0954C67.0341 56.1059 67.5686 55.2116 68.4562 54.7454C68.8285 54.5551 68.9716 54.0889 68.7807 53.7179C68.5898 53.3468 68.1222 53.2041 67.7499 53.3944C66.3564 54.1175 65.507 55.5446 65.5165 57.1049C65.5261 58.2085 65.9747 59.2456 66.7669 60.0162C66.9577 60.2065 67.1677 60.3683 67.3872 60.511C65.717 61.3577 64.5812 63.0893 64.6003 65.0778C64.6003 65.8484 64.8007 66.581 65.1348 67.2565C65.0107 67.0186 64.7625 66.8474 64.4667 66.8474H62.6532V47.1341C62.9396 46.9343 63.2068 46.725 63.4549 46.4776C64.6003 45.3359 65.2302 43.8232 65.2302 42.2058V34.3471H66.5664C66.9864 34.3471 67.33 34.0046 67.33 33.5859V27.1068C67.33 26.6882 66.9864 26.3457 66.5664 26.3457H62.6532V20.6277C62.6532 20.2091 62.3096 19.8665 61.8897 19.8665H57.4706C57.0506 19.8665 56.707 20.2091 56.707 20.6277C56.707 21.0463 57.0506 21.3888 57.4706 21.3888H61.1261V26.3457H14.8739V21.3888H54.235C54.655 21.3888 54.9986 21.0463 54.9986 20.6277C54.9986 20.2091 54.655 19.8665 54.235 19.8665H50.026V16.6222H56.5734C56.8884 16.6222 57.1747 16.4224 57.2893 16.1275L62.6055 2.03704C62.6914 1.79919 62.6628 1.54231 62.5196 1.333C62.3764 1.12368 62.1378 1.00951 61.8897 1.00951H23.4925C23.0725 1.00951 22.7289 1.35202 22.7289 1.77065C22.7289 2.18927 23.0725 2.53178 23.4925 2.53178H60.7921L56.0485 15.1H19.9515L15.2175 2.52226H19.4266C19.8465 2.52226 20.1901 2.17975 20.1901 1.76113C20.1901 1.34251 19.8465 1 19.4266 1H14.1103C13.8622 1 13.6236 1.12368 13.4804 1.32348C13.3372 1.53279 13.3086 1.78967 13.3945 2.02753L18.7107 16.118C18.8253 16.4129 19.1116 16.6127 19.4266 16.6127H25.974V19.857H14.1103C13.6904 19.857 13.3468 20.1995 13.3468 20.6182V26.3362H9.43357C9.01362 26.3362 8.67002 26.6787 8.67002 27.0973V33.5764C8.67002 33.9951 9.01362 34.3376 9.43357 34.3376H10.7698V42.1962C10.7698 44.1562 11.7529 46.0019 13.3372 47.1246V53.0709C13.3372 53.4895 13.6808 53.832 14.1008 53.832C14.1676 53.832 14.2249 53.813 14.2917 53.794C14.3489 53.813 14.4158 53.832 14.4826 53.832H19.8465C20.2665 53.832 20.6101 53.4895 20.6101 53.0709C20.6101 52.6523 20.2665 52.3098 19.8465 52.3098H14.8739V47.8952C15.5038 48.114 16.1624 48.2282 16.8305 48.2282C19.1021 48.2282 21.0873 46.9723 22.1181 45.1171C23.1489 46.9723 25.1341 48.2282 27.4152 48.2282C29.6964 48.2282 31.6721 46.9723 32.7124 45.1171C33.7432 46.9723 35.7284 48.2282 38.0095 48.2282C40.2907 48.2282 42.2664 46.9723 43.3067 45.1171C44.3375 46.9723 46.3227 48.2282 48.6038 48.2282C50.885 48.2282 52.8607 46.9723 53.901 45.1171C54.9318 46.9723 56.917 48.2282 59.1981 48.2282C59.8662 48.2282 60.5248 48.1045 61.1547 47.8857V52.3003H56.1821C55.7622 52.3003 55.4186 52.6428 55.4186 53.0614C55.4186 53.48 55.7622 53.8225 56.1821 53.8225H61.1547V55.3353H56.1821C55.7622 55.3353 55.4186 55.6778 55.4186 56.0964C55.4186 56.515 55.7622 56.8575 56.1821 56.8575H61.1547V58.3703H56.1821C55.7622 58.3703 55.4186 58.7128 55.4186 59.1314C55.4186 59.55 55.7622 59.8926 56.1821 59.8926H61.1547V61.4053H56.1821C55.7622 61.4053 55.4186 61.7478 55.4186 62.1664C55.4186 62.5851 55.7622 62.9276 56.1821 62.9276H61.1547V66.8188H49.3769V60.0733C49.3769 59.6547 49.0333 59.3122 48.6134 59.3122C48.1934 59.3122 47.8498 59.6547 47.8498 60.0733V74.4872H38.7922V51.2822H47.8498V56.7529C47.8498 57.1715 48.1934 57.514 48.6134 57.514C49.0333 57.514 49.3769 57.1715 49.3769 56.7529V50.5211C49.3769 50.1025 49.0333 49.76 48.6134 49.76H27.4439C27.0239 49.76 26.6803 50.1025 26.6803 50.5211V66.8093H14.9025V62.9181H19.8752C20.2951 62.9181 20.6387 62.5755 20.6387 62.1569C20.6387 61.7383 20.2951 61.3958 19.8752 61.3958H14.9025V59.883H19.8752C20.2951 59.883 20.6387 59.5405 20.6387 59.1219C20.6387 58.7033 20.2951 58.3608 19.8752 58.3608H14.9025V56.848H19.8752C20.2951 56.848 20.6387 56.5055 20.6387 56.0869C20.6387 55.6683 20.2951 55.3258 19.8752 55.3258H14.5112C14.4444 55.3258 14.3871 55.3448 14.3203 55.3638C14.263 55.3448 14.1962 55.3258 14.1294 55.3258C13.7095 55.3258 13.3659 55.6683 13.3659 56.0869V66.8093H11.5524C11.2947 66.8093 11.0752 66.952 10.932 67.1518C11.2566 66.4668 11.4379 65.7152 11.4284 64.935C11.4093 63.584 10.8748 62.3187 9.90125 61.3768C9.51947 61.0057 9.08997 60.7108 8.63184 60.4824C9.76763 59.7308 10.5216 58.4464 10.5025 56.9812C10.4835 55.5256 9.68173 54.165 8.41232 53.442C8.04009 53.2326 7.58195 53.3563 7.37198 53.7274C7.162 54.0889 7.28608 54.5551 7.65831 54.7644C8.46004 55.2211 8.96589 56.0774 8.97544 57.0003C8.99453 58.4369 7.83011 59.6262 6.3889 59.6452C5.69216 59.6547 5.02405 59.3883 4.52774 58.9031C4.03143 58.4179 3.7451 57.7614 3.73556 57.0669C3.72601 56.0774 4.2605 55.183 5.14813 54.7169C5.52036 54.5266 5.66353 54.0604 5.47264 53.6893C5.28175 53.3183 4.81407 53.1756 4.44184 53.3658C3.04836 54.0889 2.19891 55.516 2.20845 57.0764C2.21799 58.18 2.66658 59.217 3.45877 59.9877C3.64966 60.178 3.85963 60.3397 4.07915 60.4824C2.40888 61.3292 1.2731 63.0608 1.29219 65.0492C1.31128 66.8284 2.29435 68.4933 3.84054 69.3782C4.20323 69.5875 4.67091 69.4638 4.88089 69.0927C5.09086 68.7312 4.96679 68.265 4.59455 68.0557C3.50649 67.4373 2.81929 66.2765 2.80975 65.0302C2.79066 63.0798 4.35594 61.4814 6.31255 61.4529C7.25744 61.4434 8.15462 61.7954 8.83227 62.4614C9.50993 63.1178 9.8917 64.0027 9.90125 64.9446C9.92034 66.2861 9.18542 67.5039 7.99236 68.1223C7.62013 68.3126 7.47697 68.7788 7.66785 69.1498C7.80148 69.4067 8.06872 69.5589 8.34551 69.5589C8.46004 69.5589 8.58412 69.5304 8.69865 69.4733C9.634 68.9881 10.3594 68.2365 10.8366 67.3421C10.8175 67.4182 10.7889 67.4944 10.7889 67.5705V74.4777H7.11428V66.3051C7.11428 65.8865 6.77068 65.5439 6.35073 65.5439C5.93077 65.5439 5.58717 65.8865 5.58717 66.3051V74.4777H1.26355C0.843599 74.4777 0.5 74.8202 0.5 75.2389C0.5 75.6575 0.843599 76 1.26355 76H74.7364C75.1564 76 75.5 75.6575 75.5 75.2389C75.5 74.8202 75.1564 74.4777 74.7364 74.4777V74.5063ZM27.5011 16.6127H48.4989V19.857H27.5011V16.6127ZM10.1971 27.8584H65.8029V32.8153H10.1971V27.8584ZM21.3545 42.1962C21.3545 44.6889 19.3216 46.7155 16.8209 46.7155C16.0001 46.7155 15.1984 46.4966 14.5017 46.078C13.1463 45.2693 12.2969 43.7851 12.2969 42.1962V34.3376H21.3545V42.1962ZM27.4152 46.7155C24.9146 46.7155 22.8816 44.6889 22.8816 42.1962V34.3376H31.9393V42.1962C31.9393 44.6889 29.9063 46.7155 27.4057 46.7155H27.4152ZM38 46.7155C35.4994 46.7155 33.4664 44.6889 33.4664 42.1962V34.3376H42.524V42.1962C42.524 44.6889 40.4911 46.7155 37.9905 46.7155H38ZM53.1184 42.1962C53.1184 44.6889 51.0854 46.7155 48.5848 46.7155C46.0841 46.7155 44.0512 44.6889 44.0512 42.1962V34.3376H53.1088V42.1962H53.1184ZM54.6455 42.1962V34.3376H63.7031V42.1962C63.7031 43.395 63.2354 44.5367 62.3764 45.3835C62.1092 45.6499 61.8133 45.8782 61.4983 46.0685C60.7921 46.4871 59.9903 46.7059 59.1695 46.7059C56.6689 46.7059 54.6359 44.6794 54.6359 42.1867L54.6455 42.1962ZM12.2969 74.5063V68.3601H26.6517V74.5063H12.2969ZM28.1788 67.599V51.3108H37.2364V74.5158H28.1788V67.6085V67.599ZM61.8897 74.5063H49.3483V68.3601H63.7031V74.5063H61.8897Z" fill="#222222"/>
<path id="Vector_2" d="M35.1271 59.1419C34.7071 59.1419 34.3635 59.4843 34.3635 59.9027V63.0222C34.3635 63.4407 34.7071 63.783 35.1271 63.783C35.547 63.783 35.8906 63.4407 35.8906 63.0222V59.9027C35.8906 59.4843 35.547 59.1419 35.1271 59.1419Z" fill="#222222"/>
<path id="Vector_3" d="M40.1189 59.9027V63.0222C40.1189 63.4407 40.4625 63.783 40.8825 63.783C41.3024 63.783 41.646 63.4407 41.646 63.0222V59.9027C41.646 59.4843 41.3024 59.1419 40.8825 59.1419C40.4625 59.1419 40.1189 59.4843 40.1189 59.9027Z" fill="#222222"/>
<path id="Vector_4" d="M27.4343 10.7619C27.0144 10.7619 26.6803 10.6572 26.4322 10.448C26.184 10.2388 26.0217 9.90591 25.9358 9.45891L24.5901 9.59206C24.676 10.3529 24.9528 10.933 25.4205 11.3325C25.8881 11.7319 26.5467 11.9316 27.4057 11.9316C27.9974 11.9316 28.4938 11.8461 28.8946 11.6844C29.2955 11.5227 29.6009 11.2659 29.8204 10.9235C30.0399 10.5812 30.1449 10.2198 30.1449 9.82982C30.1449 9.40185 30.0495 9.04045 29.8681 8.74562C29.6868 8.4508 29.4386 8.22254 29.1141 8.05135C28.7896 7.88016 28.2933 7.71849 27.6252 7.56632C26.9571 7.41415 26.5276 7.25247 26.3558 7.10981C26.2222 6.99569 26.1554 6.85303 26.1554 6.70086C26.1554 6.52016 26.2317 6.38701 26.3749 6.2824C26.604 6.12072 26.9189 6.03512 27.3198 6.03512C27.7207 6.03512 27.9974 6.11121 28.1979 6.26338C28.3888 6.41554 28.5224 6.67233 28.5797 7.01471L29.9636 6.95764C29.9445 6.32995 29.7154 5.8354 29.2764 5.45498C28.8469 5.08407 28.1979 4.89386 27.3389 4.89386C26.8139 4.89386 26.3653 4.96994 25.9931 5.13162C25.6209 5.2933 25.3346 5.52155 25.1437 5.81638C24.9432 6.12072 24.8478 6.44408 24.8478 6.78645C24.8478 7.32855 25.0578 7.78506 25.4777 8.15597C25.7736 8.42226 26.2985 8.65052 27.0335 8.83122C27.6061 8.97388 27.9784 9.06898 28.1406 9.12604C28.3792 9.21164 28.5415 9.30674 28.6369 9.42087C28.7324 9.535 28.7801 9.66814 28.7801 9.82982C28.7801 10.0771 28.6656 10.2958 28.446 10.486C28.217 10.6763 27.8829 10.7714 27.4439 10.7714L27.4343 10.7619Z" fill="#222222"/>
<path id="Vector_5" d="M31.7961 4.99847V11.808H33.1801V8.83122H35.8812V11.808H37.2555V4.99847H35.8812V7.68044H33.1801V4.99847H31.7961Z" fill="#222222"/>
<path id="Vector_6" d="M44.6047 10.9901C45.206 10.3719 45.5019 9.50645 45.5019 8.41274C45.5019 7.31903 45.1965 6.44406 44.5952 5.81637C43.9939 5.19819 43.1826 4.88434 42.1804 4.88434C41.6269 4.88434 41.1306 4.96993 40.7106 5.15063C40.3861 5.28378 40.0998 5.4835 39.823 5.75931C39.5557 6.03511 39.3457 6.34896 39.1835 6.69134C38.9735 7.15735 38.8685 7.74701 38.8685 8.44127C38.8685 9.52547 39.1644 10.3719 39.7657 10.9901C40.367 11.6083 41.1687 11.9126 42.19 11.9126C43.2112 11.9126 43.9939 11.5988 44.5952 10.9806L44.6047 10.9901ZM40.8347 10.1532C40.4815 9.75373 40.3002 9.17358 40.3002 8.40323C40.3002 7.63288 40.472 7.03372 40.8251 6.64379C41.1687 6.25385 41.6269 6.06364 42.1995 6.06364C42.7722 6.06364 43.2208 6.25385 43.5644 6.64379C43.908 7.02421 44.0798 7.61386 44.0798 8.39372C44.0798 9.17358 43.908 9.77275 43.5548 10.1722C43.2017 10.5716 42.7531 10.7618 42.1995 10.7618C41.646 10.7618 41.1974 10.5621 40.8347 10.1627V10.1532Z" fill="#222222"/>
<path id="Vector_7" d="M49.3387 9.24017C49.9591 9.24017 50.4363 9.21164 50.7704 9.14506C51.009 9.088 51.2476 8.98338 51.4862 8.8217C51.7248 8.66003 51.9157 8.43177 52.0684 8.14646C52.2211 7.86114 52.2975 7.50925 52.2975 7.09079C52.2975 6.54869 52.1639 6.11121 51.9062 5.76883C51.6389 5.42645 51.3144 5.20771 50.9231 5.10309C50.6654 5.03652 50.1214 4.99847 49.2814 4.99847H47.0671V11.808H48.4511V9.24017H49.3483H49.3387ZM48.4415 6.14925H49.1096C49.606 6.14925 49.94 6.16827 50.1023 6.1968C50.3218 6.23484 50.5127 6.33946 50.6558 6.50114C50.799 6.66282 50.8754 6.86254 50.8754 7.10981C50.8754 7.30953 50.8276 7.49023 50.7226 7.6424C50.6177 7.79457 50.4745 7.90869 50.2931 7.97527C50.1118 8.05135 49.7491 8.07988 49.2051 8.07988H48.4511V6.14925H48.4415Z" fill="#222222"/>
</g>
<defs>
<clipPath id="clip0_69_1148">
<rect width="75" height="75" fill="white" transform="translate(0.5 0.5)"/>
</clipPath>
</defs>
</svg>
